<?xml version="1.0" encoding="UTF-8"?>
<svg width="31px" height="33px" viewBox="0 0 31 33" version="1.1" xmlns="http://www.w3.org/2000/svg" xmlns:xlink="http://www.w3.org/1999/xlink">
    <title>icn-playstore@1,5x</title>
    <g id="CelSwap-Landing" stroke="none" stroke-width="1" fill="none" fill-rule="evenodd" opacity="0.297781808">
        <g id="Home" transform="translate(-763.000000, -10128.000000)" fill="#FEFEFE">
            <g id="Download-the-app" transform="translate(-53.500000, 9565.000000)">
                <g id="CTA-GPlay" transform="translate(786.500000, 543.000000)">
                    <g id="icn-playstore" transform="translate(30.000000, 20.000000)">
                        <g id="Group-3" transform="translate(0.000000, 1.048667)">
                            <path d="M16.4177556,15.4876778 L1.46664444,30.8365667 C0.657755556,30.6431222 -2.22222221e-05,29.9253444 -2.22222221e-05,28.9832333 L-2.22222221e-05,1.85656667 C-2.22222221e-05,0.956566667 0.599977778,0.262122222 1.35775556,0.0332333333 L16.4177556,15.4876778 Z" id="Fill-1"></path>
                        </g>
                        <path d="M22.1511556,22.3940889 L3.83437778,32.6907556 C3.38782222,32.9418667 2.90548889,32.9907556 2.46671111,32.8852 L17.4177111,17.5363111 L22.1511556,22.3940889 Z" id="Fill-4"></path>
                        <g id="Group-8" transform="translate(18.333333, 11.604222)">
                            <path d="M10.5911444,6.54432222 L4.81781111,9.78987778 L0.0843666667,4.9321 L4.88103333,0.00654444444 L10.5933667,3.22765556 C11.8844778,3.95654444 11.8833667,5.81654444 10.5911444,6.54432222" id="Fill-6"></path>
                        </g>
                        <path d="M22.2144111,10.6107778 L17.4177444,15.5363333 L2.35774444,0.0818888889 C2.82552222,-0.0603333333 3.3533,-0.0247777778 3.83674444,0.248555556 L22.2144111,10.6107778 Z" id="Fill-9"></path>
                    </g>
                </g>
            </g>
        </g>
    </g>
</svg>