<?xml version="1.0" encoding="UTF-8"?>
<svg width="202px" height="78px" viewBox="0 0 202 78" version="1.1" xmlns="http://www.w3.org/2000/svg" xmlns:xlink="http://www.w3.org/1999/xlink">
    <title>Logo + tagline</title>
    <defs>
        <linearGradient x1="21.0784694%" y1="100%" x2="80.5284637%" y2="0%" id="linearGradient-1">
            <stop stop-color="#FF3CAC" offset="0%"></stop>
            <stop stop-color="#21D4FD" offset="100%"></stop>
        </linearGradient>
        <filter id="filter-2">
            <feColorMatrix in="SourceGraphic" type="matrix" values="0 0 0 0 0.156863 0 0 0 0 0.152941 0 0 0 0 0.384314 0 0 0 1.000000 0"></feColorMatrix>
        </filter>
    </defs>
    <g id="CelSwap-Landing" stroke="none" stroke-width="1" fill="none" fill-rule="evenodd">
        <g id="Home" transform="translate(-240.000000, -47.000000)">
            <g id="Hero" transform="translate(-0.500000, -0.500000)">
                <g id="Logo-+-tagline" transform="translate(240.500000, 47.500000)">
                    <g id="CelSwap---logo" transform="translate(0.000000, 0.000000)">
                        <g id="Group-11">
                            <path d="M39.8492548,17.6802944 C39.1625674,17.6802944 38.6057064,18.2369066 38.6057064,18.9238427 C38.6057064,19.6105302 39.1625674,20.1673911 39.8492548,20.1673911 C40.5361909,20.1673911 41.0928032,19.6105302 41.0928032,18.9238427 C41.0928032,18.2369066 40.5361909,17.6802944 39.8492548,17.6802944" id="Fill-1" fill="#6EA0E1"></path>
                            <g id="Group-5" fill="url(#linearGradient-1)">
                                <path d="M39.8492548,22.6778169 C37.7760109,22.6778169 36.0952309,20.9970369 36.0952309,18.923793 C36.0952309,16.8500517 37.7760109,15.1697691 39.8492548,15.1697691 C41.9227474,15.1697691 43.6035274,16.8500517 43.6035274,18.923793 C43.6035274,20.9970369 41.9227474,22.6778169 39.8492548,22.6778169 M36.1837513,35.2744189 C33.2457438,38.515106 29.0711519,40.3776928 24.7309193,40.3849054 L24.7043074,40.3849054 C20.3108509,40.3841593 16.1024345,38.5024218 13.1577119,35.2209464 C10.1761803,31.8976876 8.80006965,27.6099328 9.28480481,23.1473351 C10.0558048,16.0372228 15.7753813,10.2818322 22.88425,9.46233377 C23.4893606,9.39269506 24.1019325,9.35712958 24.7048048,9.35712958 C28.1469467,9.35712958 31.4137484,10.4730899 34.1520419,12.5836402 C34.3246464,12.7164512 34.4286071,12.9189009 34.4365658,13.1382628 C34.4452706,13.3586196 34.3557351,13.569028 34.1923329,13.7157667 L32.5461235,15.1913612 C32.3700371,15.3492918 32.1437113,15.4360915 31.9076858,15.4360915 C31.7094642,15.4360915 31.5174603,15.3756551 31.3530632,15.261746 C29.3817903,13.8918531 27.0829667,13.1678593 24.7048048,13.1678593 C21.3656287,13.1733309 18.1898548,14.602168 15.9721106,17.0875238 C13.7260135,19.6049631 12.6978477,22.8486347 13.0776274,26.2216354 C13.6797535,31.5768522 18.0070532,35.8994264 23.366498,36.4995628 C23.8114396,36.549056 24.2616042,36.5746731 24.7048048,36.5746731 C27.8350648,36.5746731 30.7827719,35.3393322 33.0044955,33.096717 C33.1885406,32.9106822 33.4322761,32.8077164 33.6911829,32.8077164 C33.8774664,32.8077164 34.0585271,32.8624325 34.2147167,32.9651496 L36.041738,34.1649251 C36.2215551,34.2830622 36.3406871,34.4740712 36.3677964,34.6889564 C36.3949058,34.902598 36.3280029,35.1162396 36.1837513,35.2744189 M24.8709429,-7.46129033e-05 C11.1352048,-7.46129033e-05 -2.48709678e-05,11.1351551 -2.48709678e-05,24.8708931 C-2.48709678e-05,38.6068799 11.1352048,49.7418609 24.8709429,49.7418609 C38.6069296,49.7418609 49.7419106,38.6068799 49.7419106,24.8708931 C49.7419106,11.1351551 38.6069296,-7.46129033e-05 24.8709429,-7.46129033e-05" id="Fill-3"></path>
                            </g>
                        </g>
                        <g filter="url(#filter-2)" id="Group-11">
                            
                        </g>
                    </g>
                </g>
            </g>
        </g>
    </g>
</svg>