<?xml version="1.0" encoding="UTF-8"?>
<svg width="202px" height="78px" viewBox="0 0 202 78" version="1.1" xmlns="http://www.w3.org/2000/svg" xmlns:xlink="http://www.w3.org/1999/xlink">
    <title>Logo + tagline</title>
    <defs>
        <linearGradient x1="21.0784694%" y1="100%" x2="80.5284637%" y2="0%" id="linearGradient-1">
            <stop stop-color="#FF3CAC" offset="0%"></stop>
            <stop stop-color="#21D4FD" offset="100%"></stop>
        </linearGradient>
        <filter id="filter-2">
            <feColorMatrix in="SourceGraphic" type="matrix" values="0 0 0 0 0.156863 0 0 0 0 0.152941 0 0 0 0 0.384314 0 0 0 1.000000 0"></feColorMatrix>
        </filter>
    </defs>
    <g id="CelSwap-Landing" stroke="none" stroke-width="1" fill="none" fill-rule="evenodd">
        <g id="Home" transform="translate(-240.000000, -47.000000)">
            <g id="Hero" transform="translate(-0.500000, -0.500000)">
                <g id="Logo-+-tagline" transform="translate(240.500000, 47.500000)">
                    <g id="tagline" transform="translate(0.000000, 46.606653)">
                        <rect id="Rectangle" fill="#F4EBE0" x="0" y="0.393346764" width="202" height="30" rx="15"></rect>
                        <text id="by-community-for-com" stroke="#0F1E6C" stroke-width="0.4" font-family="Journal" font-size="20.2" font-weight="normal" letter-spacing="1.65771906" fill="#0F1E6C">
                            <tspan x="9.95215222" y="19">by community for community</tspan>
                        </text>
                    </g>
                    <g id="CelSwap---logo" transform="translate(0.000000, 0.000000)">
                        <g id="Group-11">
                            <path d="M39.8492548,17.6802944 C39.1625674,17.6802944 38.6057064,18.2369066 38.6057064,18.9238427 C38.6057064,19.6105302 39.1625674,20.1673911 39.8492548,20.1673911 C40.5361909,20.1673911 41.0928032,19.6105302 41.0928032,18.9238427 C41.0928032,18.2369066 40.5361909,17.6802944 39.8492548,17.6802944" id="Fill-1" fill="#6EA0E1"></path>
                            <g id="Group-5" fill="url(#linearGradient-1)">
                                <path d="M39.8492548,22.6778169 C37.7760109,22.6778169 36.0952309,20.9970369 36.0952309,18.923793 C36.0952309,16.8500517 37.7760109,15.1697691 39.8492548,15.1697691 C41.9227474,15.1697691 43.6035274,16.8500517 43.6035274,18.923793 C43.6035274,20.9970369 41.9227474,22.6778169 39.8492548,22.6778169 M36.1837513,35.2744189 C33.2457438,38.515106 29.0711519,40.3776928 24.7309193,40.3849054 L24.7043074,40.3849054 C20.3108509,40.3841593 16.1024345,38.5024218 13.1577119,35.2209464 C10.1761803,31.8976876 8.80006965,27.6099328 9.28480481,23.1473351 C10.0558048,16.0372228 15.7753813,10.2818322 22.88425,9.46233377 C23.4893606,9.39269506 24.1019325,9.35712958 24.7048048,9.35712958 C28.1469467,9.35712958 31.4137484,10.4730899 34.1520419,12.5836402 C34.3246464,12.7164512 34.4286071,12.9189009 34.4365658,13.1382628 C34.4452706,13.3586196 34.3557351,13.569028 34.1923329,13.7157667 L32.5461235,15.1913612 C32.3700371,15.3492918 32.1437113,15.4360915 31.9076858,15.4360915 C31.7094642,15.4360915 31.5174603,15.3756551 31.3530632,15.261746 C29.3817903,13.8918531 27.0829667,13.1678593 24.7048048,13.1678593 C21.3656287,13.1733309 18.1898548,14.602168 15.9721106,17.0875238 C13.7260135,19.6049631 12.6978477,22.8486347 13.0776274,26.2216354 C13.6797535,31.5768522 18.0070532,35.8994264 23.366498,36.4995628 C23.8114396,36.549056 24.2616042,36.5746731 24.7048048,36.5746731 C27.8350648,36.5746731 30.7827719,35.3393322 33.0044955,33.096717 C33.1885406,32.9106822 33.4322761,32.8077164 33.6911829,32.8077164 C33.8774664,32.8077164 34.0585271,32.8624325 34.2147167,32.9651496 L36.041738,34.1649251 C36.2215551,34.2830622 36.3406871,34.4740712 36.3677964,34.6889564 C36.3949058,34.902598 36.3280029,35.1162396 36.1837513,35.2744189 M24.8709429,-7.46129033e-05 C11.1352048,-7.46129033e-05 -2.48709678e-05,11.1351551 -2.48709678e-05,24.8708931 C-2.48709678e-05,38.6068799 11.1352048,49.7418609 24.8709429,49.7418609 C38.6069296,49.7418609 49.7419106,38.6068799 49.7419106,24.8708931 C49.7419106,11.1351551 38.6069296,-7.46129033e-05 24.8709429,-7.46129033e-05" id="Fill-3"></path>
                            </g>
                        </g>
                        <g filter="url(#filter-2)" id="Group-11">
                            <g transform="translate(61.475410, 12.295082)">
                                <path d="M11.9863644,5.53168327 C8.11859222,5.53168327 4.82645753,8.34460241 4.82645753,12.6596097 C4.82645753,16.9746171 8.11859222,19.7555712 11.9863644,19.7555712 C15.3743942,19.7555712 17.4521231,17.9657981 17.9955291,17.294267 L17.9955291,22.1207141 C17.2283676,22.7922453 15.0227786,24.3265648 11.3790282,24.3265648 C5.05021294,24.3265648 0,19.3080613 0,12.6596097 C0,6.01115812 5.05021294,0.992921013 11.3790282,0.992921013 C15.0227786,0.992921013 17.2283676,2.52724055 17.9955291,3.19823897 L17.9955291,8.02495251 C17.4521231,7.35368771 15.3743942,5.53168327 11.9863644,5.53168327" id="Fill-1" fill="#231F20"></path>
                                <path d="M26.2374324,14.0576186 L32.8879014,14.0576186 C32.7900964,12.8378503 31.5512329,11.7469854 29.562531,11.7469854 C27.6067025,11.7469854 26.3352374,12.8060256 26.2374324,14.0576186 L26.2374324,14.0576186 Z M37.8104819,17.3628404 L26.2374324,17.3628404 C26.3352374,18.6465255 27.3458892,20.0262196 29.8885477,20.0262196 C31.4860296,20.0262196 32.627088,19.256276 33.2465198,18.3576964 L37.5170668,18.8069862 C37.1258468,20.9892509 34.5505866,24.3265648 29.8559461,24.3265648 C24.6725522,24.3265648 21.3145802,20.4115926 21.3145802,15.7903261 C21.3145802,11.2976956 24.5095439,7.4469076 29.562531,7.4469076 C34.6809932,7.4469076 37.8104819,11.393972 37.8104819,16.1115148 L37.8104819,17.3628404 Z" id="Fill-3" fill="#231F20"></path>
                                <polygon id="Fill-5" fill="#231F20" points="40.6296572 23.8301043 45.6284153 23.8301043 45.6284153 0 40.6296572 0"></polygon>
                                <path d="M54.6646995,16.7191635 C54.6959428,18.7966215 56.070649,19.7555712 57.7265451,19.7555712 C59.3821808,19.7555712 60.1945072,18.9244815 60.1945072,17.9657981 C60.1945072,16.5913035 58.819801,15.9517374 56.4143255,14.5135792 C51.5091239,11.5411014 50.4158679,9.75106199 50.4158679,6.97010783 C50.4158679,3.42226028 53.3524799,0.992921013 57.1641653,0.992921013 C61.4754835,0.992921013 64.2248959,4.28504864 64.2558788,8.47246238 L59.5383975,8.47246238 C59.5071541,6.55456296 58.5386111,5.53168327 57.1641653,5.53168327 C56.0394057,5.53168327 55.1333493,6.17098307 55.1333493,7.19386276 C55.1333493,8.44049739 56.0081623,8.98390222 58.1636913,10.2305368 C62.6002431,12.7874697 64.9434923,14.7373341 64.9434923,18.1573217 C64.9434923,22.1526791 61.5692134,24.3265648 57.7265451,24.3265648 C52.5713968,24.3265648 49.9784614,20.426836 49.9472181,16.7191635 L54.6646995,16.7191635 Z" id="Fill-7" fill="#231F20"></path>
                                <polygon id="Fill-8" fill="#231F20" points="95.7557129 7.4469076 89.7674061 23.8301043 84.629663 23.8301043 81.2593145 14.6671382 77.9216904 23.8301043 72.7512228 23.8301043 66.762916 7.4469076 72.0312843 7.4469076 75.3364566 17.6459994 78.6413562 7.4469076 83.9099972 7.4469076 87.1821723 17.6459994 90.4873446 7.4469076"></polygon>
                                <path d="M105.333415,19.7376579 C107.66683,19.7376579 109.168899,17.9723234 109.168899,15.8868699 C109.168899,13.8008816 107.66683,12.0037224 105.333415,12.0037224 C102.968036,12.0037224 101.402037,13.8008816 101.402037,15.8868699 C101.402037,17.9723234 102.968036,19.7376579 105.333415,19.7376579 M104.502336,7.4469076 C107.059236,7.4469076 108.977378,8.7303253 109.744528,10.2707475 L110.031943,7.76756145 L114.570914,7.76756145 L114.570914,24.0056435 L110.031943,24.0056435 L109.744528,21.502725 C108.977378,23.0428797 107.059236,24.3265648 104.502336,24.3265648 C99.8677373,24.3265648 96.575385,20.5396937 96.575385,15.8868699 C96.575385,11.2335113 99.8677373,7.4469076 104.502336,7.4469076" id="Fill-9" fill="#231F20"></path>
                                <path d="M127.635283,19.6814124 C130.000698,19.6814124 131.566719,17.9241565 131.566719,15.8482466 C131.566719,13.7718043 130.000698,11.9828693 127.635283,11.9828693 C125.3021,11.9828693 123.799743,13.7718043 123.799743,15.8482466 C123.799743,17.9241565 125.3021,19.6814124 127.635283,19.6814124 L127.635283,19.6814124 Z M118.397914,7.76609406 L122.936686,7.76609406 L123.224371,10.2578249 C123.991533,8.72445207 125.909436,7.4469076 128.49834,7.4469076 C133.133007,7.4469076 136.393443,11.2161829 136.393443,15.8482466 C136.393443,20.4797779 133.133007,24.2493194 128.49834,24.2493194 C125.909436,24.2493194 123.991533,22.9715087 123.224371,21.4384021 L123.224371,31.2770119 L118.397914,31.2770119 L118.397914,7.76609406 Z" id="Fill-10" fill="#231F20"></path>
                            </g>
                        </g>
                    </g>
                </g>
            </g>
        </g>
    </g>
</svg>