<?xml version="1.0" encoding="UTF-8"?>
<svg width="202px" height="78px" viewBox="0 0 202 78" version="1.1" xmlns="http://www.w3.org/2000/svg" xmlns:xlink="http://www.w3.org/1999/xlink">
    <title>Logo + tagline</title>
    <defs>
        <linearGradient x1="21.0784694%" y1="100%" x2="80.5284637%" y2="0%" id="linearGradient-1">
            <stop stop-color="#FF3CAC" offset="0%"></stop>
            <stop stop-color="#21D4FD" offset="100%"></stop>
        </linearGradient>
        <filter id="filter-2">
            <feColorMatrix in="SourceGraphic" type="matrix" values="0 0 0 0 0.156863 0 0 0 0 0.152941 0 0 0 0 0.384314 0 0 0 1.000000 0"></feColorMatrix>
        </filter>
    </defs>
    <g id="CelSwap-Landing" stroke="none" stroke-width="1" fill="none" fill-rule="evenodd">
        <g id="Home" transform="translate(-240.000000, -47.000000)">
            <g id="Hero" transform="translate(-0.500000, -0.500000)">
                <g id="Logo-+-tagline" transform="translate(240.500000, 47.500000)">
                    <g id="tagline" transform="translate(0.000000, 46.606653)">
                        <rect id="Rectangle" fill="#F4EBE0" x="0" y="0.393346764" width="202" height="30" rx="15"></rect>
                        <path d="M10.8207522,19.303 C11.1708856,19.303 11.5075522,19.2356667 11.8307522,19.101 C13.0562189,18.5892667 13.8776856,17.9428667 14.2951522,17.1618 C15.0492856,16.0979333 15.4061522,15.0004 15.3657522,13.8692 C15.3388189,13.1285333 15.0694856,12.6504667 14.5577522,12.435 C13.6958856,12.3407333 13.0696856,12.6706667 12.6791522,13.4248 C12.4771522,13.5729333 12.2818856,13.8018667 12.0933522,14.1116 C11.8374856,14.5290667 11.6758856,14.7782 11.6085522,14.859 C11.6085522,14.8724667 11.6018189,14.8994 11.5883522,14.9398 L11.5883522,14.9398 L11.5277522,15.0408 C11.8105522,14.2193333 12.0260189,13.6133333 12.1741522,13.2228 C12.3492189,12.6437333 12.4704189,12.2397333 12.5377522,12.0108 C12.6993522,11.6337333 12.8138189,11.3374667 12.8811522,11.122 C12.8811522,10.9873333 12.9316522,10.7584 13.0326522,10.4352 C13.1336522,10.112 13.1706856,9.8696 13.1437522,9.708 C13.0629522,9.55986667 12.9484856,9.4858 12.8003522,9.4858 C12.6791522,9.4858 12.5646856,9.5262 12.4569522,9.607 C12.0664189,11.3307333 11.3190189,13.6739333 10.2147522,16.6366 L10.2147522,16.6366 L10.2147522,16.7376 C10.2012856,16.778 10.1945522,16.8184 10.1945522,16.8588 C10.1810856,17.0608 10.2080189,17.2156667 10.2753522,17.3234 C10.3426856,17.4311333 10.4773522,17.4715333 10.6793522,17.4446 C10.9082856,17.2426 11.0294856,17.1214 11.0429522,17.081 C11.2853522,16.7712667 11.4469522,16.5356 11.5277522,16.374 C11.5816189,16.3470667 11.6287522,16.2797333 11.6691522,16.172 L11.6691522,16.172 L11.6893522,16.1114 C11.7028189,16.0844667 11.7364856,16.0777333 11.7903522,16.0912 L11.7903522,16.0912 L11.8711522,15.869 L11.8509522,15.8488 C12.1202856,15.364 12.4636856,14.8455333 12.8811522,14.2934 C13.1235522,13.8624667 13.4130856,13.5325333 13.7497522,13.3036 C13.9113522,13.1958667 14.0594856,13.142 14.1941522,13.142 C14.2749522,13.142 14.3557522,13.1622 14.4365522,13.2026 C14.4634856,13.2026 14.4634856,13.2093333 14.4365522,13.2228 C14.4634856,13.3574667 14.5106189,13.445 14.5779522,13.4854 C14.6587522,13.6739333 14.6991522,13.8826667 14.6991522,14.1116 C14.6991522,14.4617333 14.5375522,15.0475333 14.2143522,15.869 C13.9180856,16.6366 13.4433856,17.283 12.7902522,17.8082 C12.1371189,18.3334 11.4132856,18.6229333 10.6187522,18.6768 C10.4706189,18.6902667 10.3292189,18.6364 10.1945522,18.5152 C9.97908555,18.3266667 9.76361889,18.2054667 9.54815222,18.1516 C9.65588555,18.9192 10.0800856,19.303 10.8207522,19.303 Z M15.7508713,25.2822 C16.1010046,25.2418 16.3063713,25.2115 16.3669713,25.1913 C16.4275713,25.1711 16.5521379,25.0734667 16.7406713,24.8984 C17.1716046,24.4809333 17.4813379,24.1779333 17.6698713,23.9894 C18.2354713,23.1679333 18.8010713,22.2252667 19.3666713,21.1614 C19.4474713,21.0132667 19.7908713,20.0874333 20.3968713,18.3839 C21.0028713,16.6803667 21.4338046,15.5727333 21.6896713,15.061 C21.9724713,14.4684667 22.1475379,13.9904 22.2148713,13.6268 L22.2148713,13.6268 L21.9926713,13.4248 C21.9253379,13.344 21.8512713,13.3036 21.7704713,13.3036 C21.7300713,13.3170667 21.5684713,13.3978667 21.2856713,13.546 C20.5584713,15.8353333 20.0063379,17.384 19.6292713,18.192 C18.9963379,17.8957333 18.5654046,17.2089333 18.3364713,16.1316 C18.1614046,15.3101333 18.0267379,14.4954 17.9324713,13.6874 C17.9190046,13.5258 17.8415713,13.3473667 17.7001713,13.1521 C17.5587713,12.9568333 17.4140046,12.8659333 17.2658713,12.8794 C17.1985379,12.8794 17.1648713,12.9265333 17.1648713,13.0208 C17.1783379,13.3170667 17.1850713,13.445 17.1850713,13.4046 C17.3601379,14.5896667 17.4611379,15.4111333 17.4880713,15.869 C17.7978046,17.2560667 18.2220046,18.1246667 18.7606713,18.4748 C18.8953379,18.5690667 18.9896046,18.6902667 19.0434713,18.8384 C19.0704046,18.9326667 19.0906046,19.0202 19.1040713,19.101 C18.8347379,20.0975333 18.4038046,21.1681333 17.8112713,22.3128 C17.1379379,23.6190667 16.4511379,24.6088667 15.7508713,25.2822 Z M32.0953094,19.2222 C32.7686427,19.2222 33.3611761,19.0067333 33.8729094,18.5758 C34.1018427,18.3872667 34.2567094,18.2526 34.3375094,18.1718 C34.5395094,18.0102 34.6405094,17.8014667 34.6405094,17.5456 C34.4654427,17.4917333 34.3375094,17.5052 34.2567094,17.586 L34.2567094,17.586 L34.2365094,17.6062 C33.0918427,18.1987333 32.3444427,18.495 31.9943094,18.495 C31.5633761,18.495 31.2805761,18.2660667 31.1459094,17.8082 L31.1459094,17.8082 L31.1459094,16.778 C31.1863094,16.3874667 31.3007761,16.0642667 31.4893094,15.8084 C31.6778427,15.3101333 31.8461761,14.9667333 31.9943094,14.7782 C32.0481761,14.6031333 32.1761094,14.4213333 32.3781094,14.2328 C32.6609094,13.9769333 32.8292427,13.8220667 32.8831094,13.7682 C32.9235094,13.7547333 32.9571761,13.748 32.9841094,13.748 C33.0379761,13.748 33.0952094,13.7715667 33.1558094,13.8187 C33.2164094,13.8658333 33.2669094,13.8894 33.3073094,13.8894 C33.4015761,13.8894 33.4756427,13.849 33.5295094,13.7682 C33.5833761,13.6874 33.5968427,13.6066 33.5699094,13.5258 C33.4487094,13.1352667 33.1591761,12.8996 32.7013094,12.8188 C31.5431761,13.4652 30.7419094,14.8724667 30.2975094,17.0406 C30.2975094,18.0102 30.5601094,18.6633333 31.0853094,19 C31.4085094,19.1481333 31.7451761,19.2222 32.0953094,19.2222 Z M37.0927618,19.6306889 L37.3082285,19.6262 C38.0892951,19.5454 38.6818285,19.2154667 39.0858285,18.6364 C39.5167618,18.2458667 39.8130285,17.9428667 39.9746285,17.7274 C40.0015618,17.7004667 40.0621618,17.5725333 40.1564285,17.3436 C40.2237618,17.182 40.3112951,17.0742667 40.4190285,17.0204 C40.6075618,16.374 40.7186618,15.9262333 40.7523285,15.6771 C40.7859951,15.4279667 40.8028285,15.1889333 40.8028285,14.96 C40.8028285,14.0442667 40.5267618,13.3911333 39.9746285,13.0006 C39.8534285,12.9602 39.6918285,12.94 39.4898285,12.94 C39.3686285,12.94 39.2339618,12.9467333 39.0858285,12.9602 C39.0050285,13.0679333 38.9713618,13.1487333 38.9848285,13.2026 C38.6750951,13.4988667 38.4528951,13.6335333 38.3182285,13.6066 C37.9411618,13.6874 37.6650951,13.8759333 37.4900285,14.1722 C37.3014951,14.2799333 37.1196951,14.4684667 36.9446285,14.7378 C36.7695618,15.0475333 36.6281618,15.263 36.5204285,15.3842 C36.2914951,15.9632667 36.1164285,16.4009333 35.9952285,16.6972 C35.8066951,17.1954667 35.6922285,17.6600667 35.6518285,18.091 C35.7999618,18.8316667 36.1366285,19.3299333 36.6618285,19.5858 C36.8772951,19.6262 37.0927618,19.6396667 37.3082285,19.6262 L37.0927618,19.6306889 Z M37.1466285,18.8182 C36.8368951,18.7912667 36.6348951,18.7104667 36.5406285,18.5758 C36.5136951,18.4142 36.5002285,18.2526 36.5002285,18.091 C36.5002285,17.7678 36.5608285,17.4311333 36.6820285,17.081 C36.7027464,16.9774103 36.8270541,16.6746095 37.0549515,16.1725976 L37.2041208,15.8474852 L37.2041208,15.8474852 L37.2880285,15.667 C37.3822951,15.5996667 37.5438951,15.4313333 37.7728285,15.162 C37.9613618,14.9330667 38.1162285,14.7916667 38.2374285,14.7378 C38.2912951,15.1956667 38.4124951,15.4178667 38.6010285,15.4044 C38.6683618,15.3909333 38.7356951,15.364 38.8030285,15.3236 C38.9511618,15.1754667 39.0252285,14.9802 39.0252285,14.7378 C39.0117618,14.455 38.9982951,14.2395333 38.9848285,14.0914 L38.9848285,14.0914 L38.7828285,13.849 L39.6716285,13.5258 C39.9005618,13.6335333 40.0352285,13.8355333 40.0756285,14.1318 C40.1160285,14.4280667 40.1564285,14.7647333 40.1968285,15.1418 C39.6985618,17.1483333 38.6818285,18.3738 37.1466285,18.8182 Z M51.3889475,20.1514 C51.6582809,20.0436667 51.7996809,19.9898 51.8131475,19.9898 C51.9343475,19.909 52.0084142,19.7810667 52.0353475,19.606 C51.9141475,19.5521333 51.8266142,19.5252 51.7727475,19.5252 L51.7727475,19.5252 L51.7525475,19.5252 C51.7256142,19 51.8535475,17.9967333 52.1363475,16.5154 C52.1632809,16.3538 52.3450809,15.8016667 52.6817475,14.859 C52.8972142,14.2126 52.9847475,13.6402667 52.9443475,13.142 C52.8635475,12.9130667 52.7154142,12.7986 52.4999475,12.7986 C52.0555475,13.0544667 51.7525475,13.243 51.5909475,13.3642 C51.4832142,13.4584667 51.1263475,13.7816667 50.5203475,14.3338 C50.2106142,14.6166 49.7897809,15.1552667 49.2578475,15.9498 C48.7259142,16.7443333 48.2714142,17.3166667 47.8943475,17.6668 C47.8674142,17.6802667 47.8472142,17.6802667 47.8337475,17.6668 C48.1030809,16.5356 48.3185475,15.7006667 48.4801475,15.162 C48.4666809,15.0138667 48.4734142,14.8118667 48.5003475,14.556 C48.5272809,14.2328 48.5407475,14.0240667 48.5407475,13.9298 C48.5407475,13.4180667 48.3454809,13.0881333 47.9549475,12.94 C47.2277475,13.4248 46.5072809,14.0846667 45.7935475,14.9196 C44.9182142,15.9296 44.2718142,16.6904667 43.8543475,17.2022 C43.8274142,17.0002 43.8577142,16.7073 43.9452475,16.3235 C44.0327809,15.9397 44.0765475,15.6602667 44.0765475,15.4852 C44.3189475,14.96 44.4401475,14.4684667 44.4401475,14.0106 C44.4401475,13.6066 44.3593475,13.2834 44.1977475,13.041 C43.8610809,12.8928667 43.5782809,12.9198 43.3493475,13.1218 C43.4705475,13.4315333 43.5446142,13.7547333 43.5715475,14.0914 C43.5311475,14.6300667 43.3291475,15.465 42.9655475,16.5962 C42.6288809,17.6331333 42.4268809,18.4680667 42.3595475,19.101 C42.4538142,19.1683333 42.5548142,19.202 42.6625475,19.202 C42.7029475,19.202 42.7702809,19.1952667 42.8645475,19.1818 C42.9049475,19.1818 42.9386142,19.1885333 42.9655475,19.202 C42.9790142,19.202 43.0295142,19.1616 43.1170475,19.0808 C43.2045809,19 43.2550809,18.9730667 43.2685475,19 C43.4705475,18.596 43.8274142,18.1583333 44.3391475,17.687 C44.9182142,17.1348667 45.3424142,16.6635333 45.6117475,16.273 C45.8272142,16.0979333 46.1436809,15.7343333 46.5611475,15.1822 C46.9382142,14.6704667 47.2614142,14.3338 47.5307475,14.1722 C47.5442142,14.2799333 47.5509475,14.3944 47.5509475,14.5156 C47.5509475,14.5694667 47.5576809,14.6839333 47.5711475,14.859 C47.5846142,15.0340667 47.5913475,15.1754667 47.5913475,15.2832 C47.5778809,15.4582667 47.5442142,15.6198667 47.4903475,15.768 C47.3018142,16.3874667 47.1873475,16.8049333 47.1469475,17.0204 C47.0526809,17.7072 47.0055475,18.1448667 47.0055475,18.3334 C47.0055475,18.3872667 46.9853475,18.5286667 46.9449475,18.7576 C46.9180142,18.9192 46.9180142,19.0471333 46.9449475,19.1414 C47.1604142,19.1818 47.4836142,19.0134667 47.9145475,18.6364 C48.0357475,18.5421333 48.2714142,18.2795333 48.6215475,17.8486 C49.3487475,16.9598 49.9076142,16.2662667 50.2981475,15.768 C50.4866809,15.566 50.7627475,15.2360667 51.1263475,14.7782 C51.3014142,14.5492667 51.5101475,14.3472667 51.7525475,14.1722 C51.7794809,14.1722 51.8198809,14.1250667 51.8737475,14.0308 C51.9276142,13.9365333 51.9747475,13.8759333 52.0151475,13.849 L52.0151475,13.849 L52.0555475,13.849 C51.9747475,14.1587333 51.7862142,14.7647333 51.4899475,15.667 C51.2475475,16.4211333 51.0792142,17.0338667 50.9849475,17.5052 C50.9849475,17.6668 50.9714809,17.8991 50.9445475,18.2021 C50.9176142,18.5051 50.9041475,18.7374 50.9041475,18.899 C50.9041475,19.4511333 51.0657475,19.8686 51.3889475,20.1514 Z M63.6718666,20.1514 C63.9411999,20.0436667 64.0825999,19.9898 64.0960666,19.9898 C64.2172666,19.909 64.2913332,19.7810667 64.3182666,19.606 C64.1970666,19.5521333 64.1095332,19.5252 64.0556666,19.5252 L64.0556666,19.5252 L64.0354666,19.5252 C64.0085332,19 64.1364666,17.9967333 64.4192666,16.5154 C64.4461999,16.3538 64.6279999,15.8016667 64.9646666,14.859 C65.1801332,14.2126 65.2676666,13.6402667 65.2272666,13.142 C65.1464666,12.9130667 64.9983332,12.7986 64.7828666,12.7986 C64.3384666,13.0544667 64.0354666,13.243 63.8738666,13.3642 C63.7661332,13.4584667 63.4092666,13.7816667 62.8032666,14.3338 C62.4935332,14.6166 62.0726999,15.1552667 61.5407666,15.9498 C61.0088332,16.7443333 60.5543332,17.3166667 60.1772666,17.6668 C60.1503332,17.6802667 60.1301332,17.6802667 60.1166666,17.6668 C60.3859999,16.5356 60.6014666,15.7006667 60.7630666,15.162 C60.7495999,15.0138667 60.7563332,14.8118667 60.7832666,14.556 C60.8101999,14.2328 60.8236666,14.0240667 60.8236666,13.9298 C60.8236666,13.4180667 60.6283999,13.0881333 60.2378666,12.94 C59.5106666,13.4248 58.7901999,14.0846667 58.0764666,14.9196 C57.2011332,15.9296 56.5547332,16.6904667 56.1372666,17.2022 C56.1103332,17.0002 56.1406332,16.7073 56.2281666,16.3235 C56.3156999,15.9397 56.3594666,15.6602667 56.3594666,15.4852 C56.6018666,14.96 56.7230666,14.4684667 56.7230666,14.0106 C56.7230666,13.6066 56.6422666,13.2834 56.4806666,13.041 C56.1439999,12.8928667 55.8611999,12.9198 55.6322666,13.1218 C55.7534666,13.4315333 55.8275332,13.7547333 55.8544666,14.0914 C55.8140666,14.6300667 55.6120666,15.465 55.2484666,16.5962 C54.9117999,17.6331333 54.7097999,18.4680667 54.6424666,19.101 C54.7367332,19.1683333 54.8377332,19.202 54.9454666,19.202 C54.9858666,19.202 55.0531999,19.1952667 55.1474666,19.1818 C55.1878666,19.1818 55.2215332,19.1885333 55.2484666,19.202 C55.2619332,19.202 55.3124332,19.1616 55.3999666,19.0808 C55.4874999,19 55.5379999,18.9730667 55.5514666,19 C55.7534666,18.596 56.1103332,18.1583333 56.6220666,17.687 C57.2011332,17.1348667 57.6253332,16.6635333 57.8946666,16.273 C58.1101332,16.0979333 58.4265999,15.7343333 58.8440666,15.1822 C59.2211332,14.6704667 59.5443332,14.3338 59.8136666,14.1722 C59.8271332,14.2799333 59.8338666,14.3944 59.8338666,14.5156 C59.8338666,14.5694667 59.8405999,14.6839333 59.8540666,14.859 C59.8675332,15.0340667 59.8742666,15.1754667 59.8742666,15.2832 C59.8607999,15.4582667 59.8271332,15.6198667 59.7732666,15.768 C59.5847332,16.3874667 59.4702666,16.8049333 59.4298666,17.0204 C59.3355999,17.7072 59.2884666,18.1448667 59.2884666,18.3334 C59.2884666,18.3872667 59.2682666,18.5286667 59.2278666,18.7576 C59.2009332,18.9192 59.2009332,19.0471333 59.2278666,19.1414 C59.4433332,19.1818 59.7665332,19.0134667 60.1974666,18.6364 C60.3186666,18.5421333 60.5543332,18.2795333 60.9044666,17.8486 C61.6316666,16.9598 62.1905332,16.2662667 62.5810666,15.768 C62.7695999,15.566 63.0456666,15.2360667 63.4092666,14.7782 C63.5843332,14.5492667 63.7930666,14.3472667 64.0354666,14.1722 C64.0623999,14.1722 64.1027999,14.1250667 64.1566666,14.0308 C64.2105332,13.9365333 64.2576666,13.8759333 64.2980666,13.849 L64.2980666,13.849 L64.3384666,13.849 C64.2576666,14.1587333 64.0691332,14.7647333 63.7728666,15.667 C63.5304666,16.4211333 63.3621332,17.0338667 63.2678666,17.5052 C63.2678666,17.6668 63.2543999,17.8991 63.2274666,18.2021 C63.2005332,18.5051 63.1870666,18.7374 63.1870666,18.899 C63.1870666,19.4511333 63.3486666,19.8686 63.6718666,20.1514 Z M67.2687856,19.6868 C68.0498523,19.5790667 68.689519,19.303 69.1877856,18.8586 C69.9688523,18.0102 70.366119,17.586 70.3795856,17.586 C70.4334523,17.586 70.487319,17.6937333 70.5411856,17.9092 C70.568119,18.0438667 70.5950523,18.1314 70.6219856,18.1718 C70.7566523,18.6431333 71.0057856,18.8788 71.3693856,18.8788 C71.6117856,18.8788 71.9080523,18.7778 72.2581856,18.5758 C72.5005856,18.3334 72.709319,18.1381333 72.8843856,17.99 C73.113319,17.8014667 73.2681856,17.5119333 73.3489856,17.1214 L73.3489856,17.1214 L73.1065856,16.9598 C72.7968523,17.2291333 72.5611856,17.4446 72.3995856,17.6062 C72.3816301,17.6151778 72.3539486,17.631637 72.3165412,17.6555778 L72.1751412,17.7498444 C72.1182819,17.7887481 72.0516968,17.8351333 71.9753856,17.889 C71.8272523,17.9832667 71.658919,18.0506 71.4703856,18.091 C71.3491856,18.0506 71.275119,17.9159333 71.2481856,17.687 C71.2212523,17.3907333 71.2010523,17.2089333 71.1875856,17.1416 C71.2683856,16.2124 71.497319,15.5054 71.8743856,15.0206 C71.901319,14.8724667 71.9955856,14.6233333 72.1571856,14.2732 C72.305319,13.9634667 72.3793856,13.7076 72.3793856,13.5056 C72.3793856,13.3978667 72.3591856,13.2834 72.3187856,13.1622 C72.2379856,12.9332667 72.083119,12.8928667 71.8541856,13.041 C71.517519,13.5662 71.1673856,14.2664667 70.8037856,15.1418 C70.7364523,15.5862 70.487319,16.0844667 70.0563856,16.6366 C69.477319,17.3772667 69.1406523,17.8418667 69.0463856,18.0304 C68.701639,18.2997333 68.4904816,18.4656427 68.4129136,18.528128 L68.3797856,18.5556 C68.1777856,18.6902667 67.901719,18.7845333 67.5515856,18.8384 C67.4842523,18.6768 67.4505856,18.4007333 67.4505856,18.0102 C67.4505856,17.7678 67.4640523,17.4782667 67.4909856,17.1416 C67.7872523,16.0238667 68.043119,15.1485333 68.2585856,14.5156 C68.2720523,14.4617333 68.346119,14.3136 68.4807856,14.0712 C68.588519,13.8826667 68.6423856,13.7345333 68.6423856,13.6268 C68.6423856,13.546 68.6221856,13.4517333 68.5817856,13.344 C68.406719,13.2228 68.245119,13.1756667 68.0969856,13.2026 C67.5448523,14.1587333 67.1677856,15.1418 66.9657856,16.1518 C66.952319,16.3403333 66.9051856,16.677 66.8243856,17.1618 C66.7435856,17.5792667 66.7031856,17.9159333 66.7031856,18.1718 C66.7031856,18.7508667 66.891719,19.2558667 67.2687856,19.6868 Z M78.6629047,19.404 C78.770638,19.404 78.891838,19.3838 79.0265047,19.3434 C78.7167714,18.899 78.5619047,18.3805333 78.5619047,17.788 C78.5619047,17.4648 78.6157714,17.0271333 78.7235047,16.475 C78.8043047,16.0440667 78.891838,15.6064 78.9861047,15.162 C78.9861047,15.0677333 79.002938,14.9196 79.0366047,14.7176 L79.0547847,14.602864 C79.0763314,14.4585013 79.0871047,14.3486133 79.0871047,14.2732 C79.0871047,13.8018667 78.8649047,13.5662 78.4205047,13.5662 C77.841438,13.9298 77.2825714,14.4280667 76.7439047,15.061 C76.5419047,15.3034 76.0975047,15.9026667 75.4107047,16.8588 C75.195238,17.0877333 75.0605714,17.2762667 75.0067047,17.4244 L75.0067047,17.4244 L75.8753047,13.849 C75.902238,13.7143333 75.8584714,13.5729333 75.7440047,13.4248 C75.629538,13.2766667 75.5049714,13.2026 75.3703047,13.2026 C75.235638,13.2026 75.1211714,13.2632 75.0269047,13.3844 C74.9461047,14.0577333 74.7845047,14.8388 74.5421047,15.7276 C74.2727714,16.6837333 74.064038,17.4513333 73.9159047,18.0304 C73.8081714,18.4478667 73.8687714,18.7441333 74.0977047,18.9192 C74.1785047,18.9461333 74.2593047,18.9596 74.3401047,18.9596 C74.488238,18.9596 74.6565714,18.9192 74.8451047,18.8384 C75.2491047,18.4613333 75.7945047,17.7610667 76.4813047,16.7376 C77.1277047,15.768 77.7067714,15.0879333 78.2185047,14.6974 L78.2185047,14.6974 L78.2387047,14.7378 L77.9559047,16.1518 C77.8347047,16.7443333 77.7741047,17.2358667 77.7741047,17.6264 C77.7741047,18.2458667 77.902038,18.7778 78.1579047,19.2222 C78.306038,19.3434 78.4743714,19.404 78.6629047,19.404 Z M83.6195363,11.2725181 L83.7748238,11.2634 C83.8017571,11.1556667 83.8286904,11.0883333 83.8556238,11.0614 L83.8556238,11.0614 L83.9162238,11.021 C84.0239571,10.9132667 84.0710904,10.8055333 84.0576238,10.6978 C83.9364238,10.4958 83.8219571,10.3746 83.7142238,10.3342 C83.6064904,10.3746 83.5189571,10.3948 83.4516238,10.3948 C83.1822904,10.3813333 83.0206904,10.3813333 82.9668238,10.3948 C82.8186904,10.4486667 82.7446238,10.5833333 82.7446238,10.7988 C82.7850238,11.1624 83.1284238,11.3172667 83.7748238,11.2634 L83.6195363,11.2725181 Z M81.8356238,19.505 C82.0780238,19.5184667 82.4618238,19.3636 82.9870238,19.0404 C83.2698238,18.6633333 83.4718238,18.3738 83.5930238,18.1718 C83.8488904,18.0102 84.0980238,17.5254 84.3404238,16.7174 L84.3404238,16.7174 L83.8758238,17.2628 C83.6603571,17.3570667 83.4112238,17.5590667 83.1284238,17.8688 C82.8456238,18.1785333 82.6234238,18.3872667 82.4618238,18.495 C82.4214238,18.5084667 82.3473571,18.5657 82.2396238,18.6667 C82.1318904,18.7677 82.0510904,18.8114667 81.9972238,18.798 C81.8894904,18.6633333 81.8221571,18.5556 81.7952238,18.4748 C81.7413571,17.8014667 81.7615571,17.2426 81.8558238,16.7982 L81.8558238,16.7982 L82.3002238,14.6974 C82.5156904,14.0644667 82.7446238,13.5527333 82.9870238,13.1622 C83.0274238,13.1083333 83.0476238,13.0477333 83.0476238,12.9804 C83.0476238,12.8592 82.9870238,12.7514667 82.8658238,12.6572 C82.7446238,12.5629333 82.6166904,12.5158 82.4820238,12.5158 C82.3473571,12.5158 82.2396238,12.5629333 82.1588238,12.6572 C81.8625571,13.3305333 81.6807571,13.7749333 81.6134238,13.9904 C81.1959571,15.364 80.9872238,16.7578 80.9872238,18.1718 C80.9872238,18.4142 81.0006904,18.6566 81.0276238,18.899 C81.3238904,19.2895333 81.5932238,19.4915333 81.8356238,19.505 Z M87.2101428,19.4848 C87.3044095,19.4848 87.4121428,19.4713333 87.5333428,19.4444 C88.5298762,19.1885333 89.1493428,18.697 89.3917428,17.9698 C89.0954762,17.9832667 88.7823762,18.091 88.4524428,18.293 C88.1225095,18.495 87.8834762,18.6027333 87.7353428,18.6162 C87.5468095,18.6700667 87.3852095,18.697 87.2505428,18.697 C87.0216095,18.697 86.8835762,18.6263 86.8364428,18.4849 C86.7893095,18.3435 86.7657428,18.192 86.7657428,18.0304 C86.7253428,16.8992 87.1428095,15.4919333 88.0181428,13.8086 C88.2605428,13.7278 88.5500762,13.7008667 88.8867428,13.7278 C89.4388762,13.7682 89.8226762,13.7816667 90.0381428,13.7682 L90.0381428,13.7682 L90.0179428,13.3844 C89.8159428,13.1958667 89.5533428,13.0679333 89.2301428,13.0006 C88.9473428,12.9736667 88.6645428,12.94 88.3817428,12.8996 C88.3952095,12.8861333 88.4154095,12.8726667 88.4423428,12.8592 C89.1291428,11.6472 89.4927428,10.5766 89.5331428,9.6474 C89.3715428,9.37806667 89.2032095,9.25013333 89.0281428,9.2636 C88.9204095,9.2636 88.8194095,9.33093333 88.7251428,9.4656 C88.4827428,10.5698667 88.0450762,11.7414667 87.4121428,12.9804 C87.1158762,13.0342667 86.8196095,13.0814 86.5233428,13.1218 C86.1866762,13.1891333 85.9173428,13.3103333 85.7153428,13.4854 C85.4190762,13.6604667 85.2574762,13.8220667 85.2305428,13.9702 C85.3652095,14.4146 85.5537428,14.6300667 85.7961428,14.6166 C86.1328095,14.1856667 86.5368095,13.9634667 87.0081428,13.95 C86.8330762,14.4752 86.6782095,14.859 86.5435428,15.1014 C86.1395428,16.1248667 85.9510095,17.0069333 85.9779428,17.7476 C85.9914095,18.2862667 86.1193428,18.7508667 86.3617428,19.1414 C86.5637428,19.3703333 86.8465428,19.4848 87.2101428,19.4848 Z M89.2718619,25.2822 C89.6219952,25.2418 89.8273619,25.2115 89.8879619,25.1913 C89.9485619,25.1711 90.0731285,25.0734667 90.2616619,24.8984 C90.6925952,24.4809333 91.0023285,24.1779333 91.1908619,23.9894 C91.7564619,23.1679333 92.3220619,22.2252667 92.8876619,21.1614 C92.9684619,21.0132667 93.3118619,20.0874333 93.9178619,18.3839 C94.5238619,16.6803667 94.9547952,15.5727333 95.2106619,15.061 C95.4934619,14.4684667 95.6685285,13.9904 95.7358619,13.6268 L95.7358619,13.6268 L95.5136619,13.4248 C95.4463285,13.344 95.3722619,13.3036 95.2914619,13.3036 C95.2510619,13.3170667 95.0894619,13.3978667 94.8066619,13.546 C94.0794619,15.8353333 93.5273285,17.384 93.1502619,18.192 C92.5173285,17.8957333 92.0863952,17.2089333 91.8574619,16.1316 C91.6823952,15.3101333 91.5477285,14.4954 91.4534619,13.6874 C91.4399952,13.5258 91.3625619,13.3473667 91.2211619,13.1521 C91.0797619,12.9568333 90.9349952,12.8659333 90.7868619,12.8794 C90.7195285,12.8794 90.6858619,12.9265333 90.6858619,13.0208 C90.6993285,13.3170667 90.7060619,13.445 90.7060619,13.4046 C90.8811285,14.5896667 90.9821285,15.4111333 91.0090619,15.869 C91.3187952,17.2560667 91.7429952,18.1246667 92.2816619,18.4748 C92.4163285,18.5690667 92.5105952,18.6902667 92.5644619,18.8384 C92.5913952,18.9326667 92.6115952,19.0202 92.6250619,19.101 C92.3557285,20.0975333 91.9247952,21.1681333 91.3322619,22.3128 C90.6589285,23.6190667 89.9721285,24.6088667 89.2718619,25.2822 Z M103.0105,21.525 C103.1317,21.4846 103.219233,21.4004333 103.2731,21.2725 C103.326967,21.1445667 103.367367,21.0738667 103.3943,21.0604 C103.448167,20.8045333 103.4751,20.6496667 103.4751,20.5958 C103.461633,20.4476667 103.387567,20.3332 103.2529,20.2524 C103.239433,20.0234667 103.2731,19.8484 103.3539,19.7272 C103.3539,19.5656 103.481833,19.0269333 103.7377,18.1112 C103.8993,17.5590667 104.0609,17.0002 104.2225,16.4346 C104.5457,15.1822 104.8285,14.0712 105.0709,13.1016 C105.986633,12.7918667 106.6869,12.6033333 107.1717,12.536 C107.1717,12.4552 107.164967,12.4013333 107.1515,12.3744 L107.1515,12.3744 L107.1313,12.2936 C107.1313,12.2801333 107.124567,12.2599333 107.1111,12.233 L107.1111,12.233 L107.1111,12.132 C106.895633,11.9973333 106.680167,11.9367333 106.4647,11.9502 C106.370433,11.9502 106.2021,11.9838667 105.9597,12.0512 C105.7173,12.1185333 105.528767,12.1454667 105.3941,12.132 L105.3941,12.132 L105.4345,11.8896 C105.825033,10.8122667 106.3233,9.61373333 106.9293,8.294 C107.0909,8.28053333 107.164967,8.1526 107.1515,7.9102 C107.299633,7.69473333 107.387167,7.58026667 107.4141,7.5668 L107.4141,7.5668 L107.4545,7.7688 C107.279433,8.496 107.1313,9.04813333 107.0101,9.4252 C107.077433,9.4656 107.117833,9.49926667 107.1313,9.5262 L107.1313,9.5262 L107.1717,9.5868 C107.2929,9.7484 107.4343,9.80226667 107.5959,9.7484 C107.744033,9.68106667 107.831567,9.5464 107.8585,9.3444 L107.8585,9.3444 L107.8585,9.2434 C107.885433,9.1626 107.9393,9.102 108.0201,9.0616 L108.0201,9.0616 L108.0201,8.8798 C108.033567,8.86633333 108.0605,8.8596 108.1009,8.8596 C108.154767,8.698 108.168233,8.58353333 108.1413,8.5162 C108.073967,8.4354 108.0201,8.34786667 107.9797,8.2536 C108.1413,8.03813333 108.2221,7.7688 108.2221,7.4456 C108.2221,7.25706667 108.195167,7.05506667 108.1413,6.8396 C107.9797,6.58373333 107.7979,6.46253333 107.5959,6.476 C107.447767,6.476 107.3131,6.5366 107.1919,6.6578 C106.962967,6.8598 106.720567,7.08873333 106.4647,7.3446 C106.154967,7.9102 105.825033,8.6778 105.4749,9.6474 C104.9497,11.0883333 104.660167,11.8694 104.6063,11.9906 C104.633233,12.2734 104.5053,12.4249 104.2225,12.4451 C103.9397,12.4653 103.730967,12.4787667 103.5963,12.4855 C103.461633,12.4922333 103.347167,12.5225333 103.2529,12.5764 L103.2529,12.5764 L103.2731,13.0006 C103.326967,13.243 103.4549,13.3574667 103.6569,13.344 C103.6973,13.344 103.784833,13.3271667 103.9195,13.2935 C104.054167,13.2598333 104.148433,13.2497333 104.2023,13.2632 C104.1619,13.4652 104.1013,13.7749333 104.0205,14.1924 C103.953167,14.2462667 103.912767,14.3472667 103.8993,14.4954 C103.885833,14.5896667 103.781467,15.0071333 103.5862,15.7478 L103.539277,15.9258125 C103.37417,16.5522931 103.285444,16.8902222 103.2731,16.9396 C103.259633,16.9934667 103.138433,17.4580667 102.9095,18.3334 C102.653633,19.2491333 102.512233,19.7676 102.4853,19.8888 C102.417967,20.3062667 102.391033,20.616 102.4045,20.818 C102.5661,21.2354667 102.7681,21.4711333 103.0105,21.525 Z M108.674552,19.6306889 L108.890019,19.6262 C109.671086,19.5454 110.263619,19.2154667 110.667619,18.6364 C111.098552,18.2458667 111.394819,17.9428667 111.556419,17.7274 C111.583352,17.7004667 111.643952,17.5725333 111.738219,17.3436 C111.805552,17.182 111.893086,17.0742667 112.000819,17.0204 C112.189352,16.374 112.300452,15.9262333 112.334119,15.6771 C112.367786,15.4279667 112.384619,15.1889333 112.384619,14.96 C112.384619,14.0442667 112.108552,13.3911333 111.556419,13.0006 C111.435219,12.9602 111.273619,12.94 111.071619,12.94 C110.950419,12.94 110.815752,12.9467333 110.667619,12.9602 C110.586819,13.0679333 110.553152,13.1487333 110.566619,13.2026 C110.256886,13.4988667 110.034686,13.6335333 109.900019,13.6066 C109.522952,13.6874 109.246886,13.8759333 109.071819,14.1722 C108.883286,14.2799333 108.701486,14.4684667 108.526419,14.7378 C108.351352,15.0475333 108.209952,15.263 108.102219,15.3842 C107.873286,15.9632667 107.698219,16.4009333 107.577019,16.6972 C107.388486,17.1954667 107.274019,17.6600667 107.233619,18.091 C107.381752,18.8316667 107.718419,19.3299333 108.243619,19.5858 C108.459086,19.6262 108.674552,19.6396667 108.890019,19.6262 L108.674552,19.6306889 Z M108.728419,18.8182 C108.418686,18.7912667 108.216686,18.7104667 108.122419,18.5758 C108.095486,18.4142 108.082019,18.2526 108.082019,18.091 C108.082019,17.7678 108.142619,17.4311333 108.263819,17.081 C108.290752,16.9463333 108.492752,16.475 108.869819,15.667 C108.964086,15.5996667 109.125686,15.4313333 109.354619,15.162 C109.543152,14.9330667 109.698019,14.7916667 109.819219,14.7378 C109.873086,15.1956667 109.994286,15.4178667 110.182819,15.4044 C110.250152,15.3909333 110.317486,15.364 110.384819,15.3236 C110.532952,15.1754667 110.607019,14.9802 110.607019,14.7378 C110.593552,14.455 110.580086,14.2395333 110.566619,14.0914 L110.566619,14.0914 L110.364619,13.849 L111.253419,13.5258 C111.482352,13.6335333 111.617019,13.8355333 111.657419,14.1318 C111.697819,14.4280667 111.738219,14.7647333 111.778619,15.1418 C111.280352,17.1483333 110.263619,18.3738 108.728419,18.8182 Z M114.244338,19.3838 C114.298205,19.3838 114.358805,19.3501333 114.426138,19.2828 C114.480005,19.2424 114.533871,19.2693333 114.587738,19.3636 C114.803205,19.2962667 114.937871,19.1212 114.991738,18.8384 C115.005205,18.5017333 115.005205,18.2795333 114.991738,18.1718 C115.234138,17.485 115.415938,17.0338667 115.537138,16.8184 C115.591005,16.7510667 115.651605,16.5962 115.718938,16.3538 C115.799738,16.0171333 115.887271,15.8420667 115.981538,15.8286 C116.075805,15.5323333 116.264338,15.2226 116.547138,14.8994 C116.789538,14.6300667 117.038671,14.3607333 117.294538,14.0914 C117.846671,13.4584667 118.452671,13.041 119.112538,12.839 C119.206805,12.9198 119.267405,13.0881333 119.294338,13.344 C119.334738,13.8018667 119.375138,14.0712 119.415538,14.152 L119.415538,14.152 L119.698338,14.1116 C119.806071,13.4921333 119.859938,13.1218 119.859938,13.0006 C119.833005,12.7716667 119.745471,12.5562 119.597338,12.3542 C119.381871,12.2464667 119.146205,12.2060667 118.890338,12.233 C118.324738,12.2868667 117.806271,12.5595667 117.334938,13.0511 C116.863605,13.5426333 116.412471,14.0712 115.981538,14.6368 C115.995005,14.6098667 116.001738,14.5762 116.001738,14.5358 L116.001738,14.5358 L116.062338,14.354 C116.048871,14.2462667 116.042138,14.1789333 116.042138,14.152 C116.055605,14.1250667 116.102738,14.1048667 116.183538,14.0914 C116.170071,13.8894 116.183538,13.7244333 116.223938,13.5965 C116.264338,13.4685667 116.284538,13.3911333 116.284538,13.3642 C116.257605,13.1083333 116.021938,13.0208 115.577538,13.1016 C115.389005,13.142 115.294738,13.2362667 115.294738,13.3844 C115.294738,13.4652 115.321671,13.5662 115.375538,13.6874 C114.648338,16.5288667 114.177005,18.3401333 113.961538,19.1212 C114.042338,19.2962667 114.136605,19.3838 114.244338,19.3838 Z M129.215176,19.2222 C129.88851,19.2222 130.481043,19.0067333 130.992776,18.5758 C131.22171,18.3872667 131.376576,18.2526 131.457376,18.1718 C131.659376,18.0102 131.760376,17.8014667 131.760376,17.5456 C131.58531,17.4917333 131.457376,17.5052 131.376576,17.586 L131.376576,17.586 L131.356376,17.6062 C130.21171,18.1987333 129.46431,18.495 129.114176,18.495 C128.683243,18.495 128.400443,18.2660667 128.265776,17.8082 L128.265776,17.8082 L128.265776,16.778 C128.306176,16.3874667 128.420643,16.0642667 128.609176,15.8084 C128.79771,15.3101333 128.966043,14.9667333 129.114176,14.7782 C129.168043,14.6031333 129.295976,14.4213333 129.497976,14.2328 C129.780776,13.9769333 129.94911,13.8220667 130.002976,13.7682 C130.043376,13.7547333 130.077043,13.748 130.103976,13.748 C130.157843,13.748 130.215076,13.7715667 130.275676,13.8187 C130.336276,13.8658333 130.386776,13.8894 130.427176,13.8894 C130.521443,13.8894 130.59551,13.849 130.649376,13.7682 C130.703243,13.6874 130.71671,13.6066 130.689776,13.5258 C130.568576,13.1352667 130.279043,12.8996 129.821176,12.8188 C128.663043,13.4652 127.861776,14.8724667 127.417376,17.0406 C127.417376,18.0102 127.679976,18.6633333 128.205176,19 C128.528376,19.1481333 128.865043,19.2222 129.215176,19.2222 Z M134.212629,19.6306889 L134.428095,19.6262 C135.209162,19.5454 135.801695,19.2154667 136.205695,18.6364 C136.636629,18.2458667 136.932895,17.9428667 137.094495,17.7274 C137.121429,17.7004667 137.182029,17.5725333 137.276295,17.3436 C137.343629,17.182 137.431162,17.0742667 137.538895,17.0204 C137.727429,16.374 137.838529,15.9262333 137.872195,15.6771 C137.905862,15.4279667 137.922695,15.1889333 137.922695,14.96 C137.922695,14.0442667 137.646629,13.3911333 137.094495,13.0006 C136.973295,12.9602 136.811695,12.94 136.609695,12.94 C136.488495,12.94 136.353829,12.9467333 136.205695,12.9602 C136.124895,13.0679333 136.091229,13.1487333 136.104695,13.2026 C135.794962,13.4988667 135.572762,13.6335333 135.438095,13.6066 C135.061029,13.6874 134.784962,13.8759333 134.609895,14.1722 C134.421362,14.2799333 134.239562,14.4684667 134.064495,14.7378 C133.889429,15.0475333 133.748029,15.263 133.640295,15.3842 C133.411362,15.9632667 133.236295,16.4009333 133.115095,16.6972 C132.926562,17.1954667 132.812095,17.6600667 132.771695,18.091 C132.919829,18.8316667 133.256495,19.3299333 133.781695,19.5858 C133.997162,19.6262 134.212629,19.6396667 134.428095,19.6262 L134.212629,19.6306889 Z M134.266495,18.8182 C133.956762,18.7912667 133.754762,18.7104667 133.660495,18.5758 C133.633562,18.4142 133.620095,18.2526 133.620095,18.091 C133.620095,17.7678 133.680695,17.4311333 133.801895,17.081 C133.828829,16.9463333 134.030829,16.475 134.407895,15.667 C134.502162,15.5996667 134.663762,15.4313333 134.892695,15.162 C135.081229,14.9330667 135.236095,14.7916667 135.357295,14.7378 C135.411162,15.1956667 135.532362,15.4178667 135.720895,15.4044 C135.788229,15.3909333 135.855562,15.364 135.922895,15.3236 C136.071029,15.1754667 136.145095,14.9802 136.145095,14.7378 C136.131629,14.455 136.118162,14.2395333 136.104695,14.0914 L136.104695,14.0914 L135.902695,13.849 L136.791495,13.5258 C137.020429,13.6335333 137.155095,13.8355333 137.195495,14.1318 C137.235895,14.4280667 137.276295,14.7647333 137.316695,15.1418 C136.818429,17.1483333 135.801695,18.3738 134.266495,18.8182 Z M148.508814,20.1514 C148.778148,20.0436667 148.919548,19.9898 148.933014,19.9898 C149.054214,19.909 149.128281,19.7810667 149.155214,19.606 C149.034014,19.5521333 148.946481,19.5252 148.892614,19.5252 L148.892614,19.5252 L148.872414,19.5252 C148.845481,19 148.973414,17.9967333 149.256214,16.5154 C149.283148,16.3538 149.464948,15.8016667 149.801614,14.859 C150.017081,14.2126 150.104614,13.6402667 150.064214,13.142 C149.983414,12.9130667 149.835281,12.7986 149.619814,12.7986 C149.175414,13.0544667 148.872414,13.243 148.710814,13.3642 C148.603081,13.4584667 148.246214,13.7816667 147.640214,14.3338 C147.330481,14.6166 146.909648,15.1552667 146.377714,15.9498 C145.845781,16.7443333 145.391281,17.3166667 145.014214,17.6668 C144.987281,17.6802667 144.967081,17.6802667 144.953614,17.6668 C145.222948,16.5356 145.438414,15.7006667 145.600014,15.162 C145.586548,15.0138667 145.593281,14.8118667 145.620214,14.556 C145.647148,14.2328 145.660614,14.0240667 145.660614,13.9298 C145.660614,13.4180667 145.465348,13.0881333 145.074814,12.94 C144.347614,13.4248 143.627148,14.0846667 142.913414,14.9196 C142.038081,15.9296 141.391681,16.6904667 140.974214,17.2022 C140.947281,17.0002 140.977581,16.7073 141.065114,16.3235 C141.152648,15.9397 141.196414,15.6602667 141.196414,15.4852 C141.438814,14.96 141.560014,14.4684667 141.560014,14.0106 C141.560014,13.6066 141.479214,13.2834 141.317614,13.041 C140.980948,12.8928667 140.698148,12.9198 140.469214,13.1218 C140.590414,13.4315333 140.664481,13.7547333 140.691414,14.0914 C140.651014,14.6300667 140.449014,15.465 140.085414,16.5962 C139.748748,17.6331333 139.546748,18.4680667 139.479414,19.101 C139.573681,19.1683333 139.674681,19.202 139.782414,19.202 C139.822814,19.202 139.890148,19.1952667 139.984414,19.1818 C140.024814,19.1818 140.058481,19.1885333 140.085414,19.202 C140.098881,19.202 140.149381,19.1616 140.236914,19.0808 C140.324448,19 140.374948,18.9730667 140.388414,19 C140.590414,18.596 140.947281,18.1583333 141.459014,17.687 C142.038081,17.1348667 142.462281,16.6635333 142.731614,16.273 C142.947081,16.0979333 143.263548,15.7343333 143.681014,15.1822 C144.058081,14.6704667 144.381281,14.3338 144.650614,14.1722 C144.664081,14.2799333 144.670814,14.3944 144.670814,14.5156 C144.670814,14.5694667 144.677548,14.6839333 144.691014,14.859 C144.704481,15.0340667 144.711214,15.1754667 144.711214,15.2832 C144.697748,15.4582667 144.664081,15.6198667 144.610214,15.768 C144.421681,16.3874667 144.307214,16.8049333 144.266814,17.0204 C144.172548,17.7072 144.125414,18.1448667 144.125414,18.3334 C144.125414,18.3872667 144.105214,18.5286667 144.064814,18.7576 C144.037881,18.9192 144.037881,19.0471333 144.064814,19.1414 C144.280281,19.1818 144.603481,19.0134667 145.034414,18.6364 C145.155614,18.5421333 145.391281,18.2795333 145.741414,17.8486 C146.468614,16.9598 147.027481,16.2662667 147.418014,15.768 C147.606548,15.566 147.882614,15.2360667 148.246214,14.7782 C148.421281,14.5492667 148.630014,14.3472667 148.872414,14.1722 C148.899348,14.1722 148.939748,14.1250667 148.993614,14.0308 C149.047481,13.9365333 149.094614,13.8759333 149.135014,13.849 L149.135014,13.849 L149.175414,13.849 C149.094614,14.1587333 148.906081,14.7647333 148.609814,15.667 C148.367414,16.4211333 148.199081,17.0338667 148.104814,17.5052 C148.104814,17.6668 148.091348,17.8991 148.064414,18.2021 C148.037481,18.5051 148.024014,18.7374 148.024014,18.899 C148.024014,19.4511333 148.185614,19.8686 148.508814,20.1514 Z M160.791733,20.1514 C161.061067,20.0436667 161.202467,19.9898 161.215933,19.9898 C161.337133,19.909 161.4112,19.7810667 161.438133,19.606 C161.316933,19.5521333 161.2294,19.5252 161.175533,19.5252 L161.175533,19.5252 L161.155333,19.5252 C161.1284,19 161.256333,17.9967333 161.539133,16.5154 C161.566067,16.3538 161.747867,15.8016667 162.084533,14.859 C162.3,14.2126 162.387533,13.6402667 162.347133,13.142 C162.266333,12.9130667 162.1182,12.7986 161.902733,12.7986 C161.458333,13.0544667 161.155333,13.243 160.993733,13.3642 C160.886,13.4584667 160.529133,13.7816667 159.923133,14.3338 C159.6134,14.6166 159.192567,15.1552667 158.660633,15.9498 C158.1287,16.7443333 157.6742,17.3166667 157.297133,17.6668 C157.2702,17.6802667 157.25,17.6802667 157.236533,17.6668 C157.505867,16.5356 157.721333,15.7006667 157.882933,15.162 C157.869467,15.0138667 157.8762,14.8118667 157.903133,14.556 C157.906981,14.5098286 157.910554,14.4659932 157.913852,14.4244939 L157.930342,14.2035306 C157.939136,14.0749102 157.943533,13.9836667 157.943533,13.9298 C157.943533,13.4180667 157.748267,13.0881333 157.357733,12.94 C156.630533,13.4248 155.910067,14.0846667 155.196333,14.9196 C154.321,15.9296 153.6746,16.6904667 153.257133,17.2022 C153.2302,17.0002 153.2605,16.7073 153.348033,16.3235 C153.435567,15.9397 153.479333,15.6602667 153.479333,15.4852 C153.721733,14.96 153.842933,14.4684667 153.842933,14.0106 C153.842933,13.6066 153.762133,13.2834 153.600533,13.041 C153.263867,12.8928667 152.981067,12.9198 152.752133,13.1218 C152.873333,13.4315333 152.9474,13.7547333 152.974333,14.0914 C152.933933,14.6300667 152.731933,15.465 152.368333,16.5962 C152.031667,17.6331333 151.829667,18.4680667 151.762333,19.101 C151.8566,19.1683333 151.9576,19.202 152.065333,19.202 C152.105733,19.202 152.173067,19.1952667 152.267333,19.1818 C152.307733,19.1818 152.3414,19.1885333 152.368333,19.202 C152.3818,19.202 152.4323,19.1616 152.519833,19.0808 C152.607367,19 152.657867,18.9730667 152.671333,19 C152.873333,18.596 153.2302,18.1583333 153.741933,17.687 C154.321,17.1348667 154.7452,16.6635333 155.014533,16.273 C155.23,16.0979333 155.546467,15.7343333 155.963933,15.1822 C156.341,14.6704667 156.6642,14.3338 156.933533,14.1722 C156.947,14.2799333 156.953733,14.3944 156.953733,14.5156 C156.953733,14.5694667 156.960467,14.6839333 156.973933,14.859 C156.9874,15.0340667 156.994133,15.1754667 156.994133,15.2832 C156.980667,15.4582667 156.947,15.6198667 156.893133,15.768 C156.7046,16.3874667 156.590133,16.8049333 156.549733,17.0204 C156.455467,17.7072 156.408333,18.1448667 156.408333,18.3334 C156.408333,18.3872667 156.388133,18.5286667 156.347733,18.7576 C156.3208,18.9192 156.3208,19.0471333 156.347733,19.1414 C156.5632,19.1818 156.8864,19.0134667 157.317333,18.6364 C157.438533,18.5421333 157.6742,18.2795333 158.024333,17.8486 C158.751533,16.9598 159.3104,16.2662667 159.700933,15.768 C159.889467,15.566 160.165533,15.2360667 160.529133,14.7782 C160.7042,14.5492667 160.912933,14.3472667 161.155333,14.1722 C161.182267,14.1722 161.222667,14.1250667 161.276533,14.0308 C161.3304,13.9365333 161.377533,13.8759333 161.417933,13.849 L161.417933,13.849 L161.458333,13.849 C161.377533,14.1587333 161.189,14.7647333 160.892733,15.667 C160.650333,16.4211333 160.482,17.0338667 160.387733,17.5052 C160.387733,17.6668 160.374267,17.8991 160.347333,18.2021 C160.3204,18.5051 160.306933,18.7374 160.306933,18.899 C160.306933,19.4511333 160.468533,19.8686 160.791733,20.1514 Z M164.388652,19.6868 C165.169719,19.5790667 165.809386,19.303 166.307652,18.8586 C167.088719,18.0102 167.485986,17.586 167.499452,17.586 C167.553319,17.586 167.607186,17.6937333 167.661052,17.9092 C167.687986,18.0438667 167.714919,18.1314 167.741852,18.1718 C167.876519,18.6431333 168.125652,18.8788 168.489252,18.8788 C168.731652,18.8788 169.027919,18.7778 169.378052,18.5758 C169.620452,18.3334 169.829186,18.1381333 170.004252,17.99 C170.233186,17.8014667 170.388052,17.5119333 170.468852,17.1214 L170.468852,17.1214 L170.226452,16.9598 C169.916719,17.2291333 169.681052,17.4446 169.519452,17.6062 C169.501497,17.6151778 169.473815,17.631637 169.436408,17.6555778 L169.295008,17.7498444 C169.238149,17.7887481 169.171564,17.8351333 169.095252,17.889 C168.947119,17.9832667 168.778786,18.0506 168.590252,18.091 C168.469052,18.0506 168.394986,17.9159333 168.368052,17.687 C168.341119,17.3907333 168.320919,17.2089333 168.307452,17.1416 C168.388252,16.2124 168.617186,15.5054 168.994252,15.0206 C169.021186,14.8724667 169.115452,14.6233333 169.277052,14.2732 C169.425186,13.9634667 169.499252,13.7076 169.499252,13.5056 C169.499252,13.3978667 169.479052,13.2834 169.438652,13.1622 C169.357852,12.9332667 169.202986,12.8928667 168.974052,13.041 C168.637386,13.5662 168.287252,14.2664667 167.923652,15.1418 C167.856319,15.5862 167.607186,16.0844667 167.176252,16.6366 C166.597186,17.3772667 166.260519,17.8418667 166.166252,18.0304 C165.735319,18.3670667 165.513119,18.5421333 165.499652,18.5556 C165.297652,18.6902667 165.021586,18.7845333 164.671452,18.8384 C164.604119,18.6768 164.570452,18.4007333 164.570452,18.0102 C164.570452,17.7678 164.583919,17.4782667 164.610852,17.1416 C164.907119,16.0238667 165.162986,15.1485333 165.378452,14.5156 C165.391919,14.4617333 165.465986,14.3136 165.600652,14.0712 C165.708386,13.8826667 165.762252,13.7345333 165.762252,13.6268 C165.762252,13.546 165.742052,13.4517333 165.701652,13.344 C165.526586,13.2228 165.364986,13.1756667 165.216852,13.2026 C164.664719,14.1587333 164.287652,15.1418 164.085652,16.1518 C164.072186,16.3403333 164.025052,16.677 163.944252,17.1618 C163.863452,17.5792667 163.823052,17.9159333 163.823052,18.1718 C163.823052,18.7508667 164.011586,19.2558667 164.388652,19.6868 Z M175.782772,19.404 C175.890505,19.404 176.011705,19.3838 176.146372,19.3434 C175.836638,18.899 175.681772,18.3805333 175.681772,17.788 C175.681772,17.4648 175.735638,17.0271333 175.843372,16.475 C175.924172,16.0440667 176.011705,15.6064 176.105972,15.162 C176.105972,15.0677333 176.122805,14.9196 176.156472,14.7176 L176.174652,14.602864 C176.196198,14.4585013 176.206972,14.3486133 176.206972,14.2732 C176.206972,13.8018667 175.984772,13.5662 175.540372,13.5662 C174.961305,13.9298 174.402438,14.4280667 173.863772,15.061 C173.661772,15.3034 173.217372,15.9026667 172.530572,16.8588 C172.315105,17.0877333 172.180438,17.2762667 172.126572,17.4244 L172.126572,17.4244 L172.995172,13.849 C173.022105,13.7143333 172.978338,13.5729333 172.863872,13.4248 C172.749405,13.2766667 172.624838,13.2026 172.490172,13.2026 C172.355505,13.2026 172.241038,13.2632 172.146772,13.3844 C172.065972,14.0577333 171.904372,14.8388 171.661972,15.7276 C171.392638,16.6837333 171.183905,17.4513333 171.035772,18.0304 C170.928038,18.4478667 170.988638,18.7441333 171.217572,18.9192 C171.298372,18.9461333 171.379172,18.9596 171.459972,18.9596 C171.608105,18.9596 171.776438,18.9192 171.964972,18.8384 C172.368972,18.4613333 172.914372,17.7610667 173.601172,16.7376 C174.247572,15.768 174.826638,15.0879333 175.338372,14.6974 L175.338372,14.6974 L175.358572,14.7378 L175.075772,16.1518 C174.954572,16.7443333 174.893972,17.2358667 174.893972,17.6264 C174.893972,18.2458667 175.021905,18.7778 175.277772,19.2222 C175.425905,19.3434 175.594238,19.404 175.782772,19.404 Z M180.739403,11.2725181 L180.894691,11.2634 C180.921624,11.1556667 180.948557,11.0883333 180.975491,11.0614 L180.975491,11.0614 L181.036091,11.021 C181.143824,10.9132667 181.190957,10.8055333 181.177491,10.6978 C181.056291,10.4958 180.941824,10.3746 180.834091,10.3342 C180.726357,10.3746 180.638824,10.3948 180.571491,10.3948 C180.302157,10.3813333 180.140557,10.3813333 180.086691,10.3948 C179.938557,10.4486667 179.864491,10.5833333 179.864491,10.7988 C179.904891,11.1624 180.248291,11.3172667 180.894691,11.2634 L180.739403,11.2725181 Z M178.955491,19.505 C179.197891,19.5184667 179.581691,19.3636 180.106891,19.0404 C180.389691,18.6633333 180.591691,18.3738 180.712891,18.1718 C180.968757,18.0102 181.217891,17.5254 181.460291,16.7174 L181.460291,16.7174 L180.995691,17.2628 C180.780224,17.3570667 180.531091,17.5590667 180.248291,17.8688 C179.965491,18.1785333 179.743291,18.3872667 179.581691,18.495 C179.541291,18.5084667 179.467224,18.5657 179.359491,18.6667 C179.251757,18.7677 179.170957,18.8114667 179.117091,18.798 C179.009357,18.6633333 178.942024,18.5556 178.915091,18.4748 C178.861224,17.8014667 178.881424,17.2426 178.975691,16.7982 L178.975691,16.7982 L179.420091,14.6974 C179.635557,14.0644667 179.864491,13.5527333 180.106891,13.1622 C180.147291,13.1083333 180.167491,13.0477333 180.167491,12.9804 C180.167491,12.8592 180.106891,12.7514667 179.985691,12.6572 C179.864491,12.5629333 179.736557,12.5158 179.601891,12.5158 C179.467224,12.5158 179.359491,12.5629333 179.278691,12.6572 C178.982424,13.3305333 178.800624,13.7749333 178.733291,13.9904 C178.315824,15.364 178.107091,16.7578 178.107091,18.1718 C178.107091,18.4142 178.120557,18.6566 178.147491,18.899 C178.443757,19.2895333 178.713091,19.4915333 178.955491,19.505 Z M184.33001,19.4848 C184.424276,19.4848 184.53201,19.4713333 184.65321,19.4444 C185.649743,19.1885333 186.26921,18.697 186.51161,17.9698 C186.215343,17.9832667 185.902243,18.091 185.57231,18.293 C185.242376,18.495 185.003343,18.6027333 184.85521,18.6162 C184.666676,18.6700667 184.505076,18.697 184.37041,18.697 C184.141476,18.697 184.003443,18.6263 183.95631,18.4849 C183.909176,18.3435 183.88561,18.192 183.88561,18.0304 C183.84521,16.8992 184.262676,15.4919333 185.13801,13.8086 C185.38041,13.7278 185.669943,13.7008667 186.00661,13.7278 C186.558743,13.7682 186.942543,13.7816667 187.15801,13.7682 L187.15801,13.7682 L187.13781,13.3844 C186.93581,13.1958667 186.67321,13.0679333 186.35001,13.0006 C186.06721,12.9736667 185.78441,12.94 185.50161,12.8996 C185.515076,12.8861333 185.535276,12.8726667 185.56221,12.8592 C186.24901,11.6472 186.61261,10.5766 186.65301,9.6474 C186.49141,9.37806667 186.323076,9.25013333 186.14801,9.2636 C186.040276,9.2636 185.939276,9.33093333 185.84501,9.4656 C185.60261,10.5698667 185.164943,11.7414667 184.53201,12.9804 C184.235743,13.0342667 183.939476,13.0814 183.64321,13.1218 C183.306543,13.1891333 183.03721,13.3103333 182.83521,13.4854 C182.538943,13.6604667 182.377343,13.8220667 182.35041,13.9702 C182.485076,14.4146 182.67361,14.6300667 182.91601,14.6166 C183.252676,14.1856667 183.656676,13.9634667 184.12801,13.95 C183.952943,14.4752 183.798076,14.859 183.66341,15.1014 C183.25941,16.1248667 183.070876,17.0069333 183.09781,17.7476 C183.111276,18.2862667 183.23921,18.7508667 183.48161,19.1414 C183.68361,19.3703333 183.96641,19.4848 184.33001,19.4848 Z M186.391729,25.2822 C186.741862,25.2418 186.947229,25.2115 187.007829,25.1913 C187.068429,25.1711 187.192995,25.0734667 187.381529,24.8984 C187.812462,24.4809333 188.122195,24.1779333 188.310729,23.9894 C188.876329,23.1679333 189.441929,22.2252667 190.007529,21.1614 C190.088329,21.0132667 190.431729,20.0874333 191.037729,18.3839 C191.643729,16.6803667 192.074662,15.5727333 192.330529,15.061 C192.613329,14.4684667 192.788395,13.9904 192.855729,13.6268 L192.855729,13.6268 L192.633529,13.4248 C192.566195,13.344 192.492129,13.3036 192.411329,13.3036 C192.370929,13.3170667 192.209329,13.3978667 191.926529,13.546 C191.199329,15.8353333 190.647195,17.384 190.270129,18.192 C189.637195,17.8957333 189.206262,17.2089333 188.977329,16.1316 C188.802262,15.3101333 188.667595,14.4954 188.573329,13.6874 C188.559862,13.5258 188.482429,13.3473667 188.341029,13.1521 C188.199629,12.9568333 188.054862,12.8659333 187.906729,12.8794 C187.839395,12.8794 187.805729,12.9265333 187.805729,13.0208 C187.819195,13.3170667 187.825929,13.445 187.825929,13.4046 C188.000995,14.5896667 188.101995,15.4111333 188.128929,15.869 C188.438662,17.2560667 188.862862,18.1246667 189.401529,18.4748 C189.536195,18.5690667 189.630462,18.6902667 189.684329,18.8384 C189.711262,18.9326667 189.731462,19.0202 189.744929,19.101 C189.475595,20.0975333 189.044662,21.1681333 188.452129,22.3128 C187.778795,23.6190667 187.091995,24.6088667 186.391729,25.2822 Z" id="bycommunityforcommunity" stroke="#0F1E6C" stroke-width="0.4" fill="#0F1E6C" fill-rule="nonzero"></path>
                    </g>
                    <g id="CelSwap---logo" transform="translate(0.000000, 0.000000)">
                        <g id="Group-11">
                            <path d="M39.8492548,17.6802944 C39.1625674,17.6802944 38.6057064,18.2369066 38.6057064,18.9238427 C38.6057064,19.6105302 39.1625674,20.1673911 39.8492548,20.1673911 C40.5361909,20.1673911 41.0928032,19.6105302 41.0928032,18.9238427 C41.0928032,18.2369066 40.5361909,17.6802944 39.8492548,17.6802944" id="Fill-1" fill="#6EA0E1"></path>
                            <g id="Group-5" fill="url(#linearGradient-1)">
                                <path d="M39.8492548,22.6778169 C37.7760109,22.6778169 36.0952309,20.9970369 36.0952309,18.923793 C36.0952309,16.8500517 37.7760109,15.1697691 39.8492548,15.1697691 C41.9227474,15.1697691 43.6035274,16.8500517 43.6035274,18.923793 C43.6035274,20.9970369 41.9227474,22.6778169 39.8492548,22.6778169 M36.1837513,35.2744189 C33.2457438,38.515106 29.0711519,40.3776928 24.7309193,40.3849054 L24.7043074,40.3849054 C20.3108509,40.3841593 16.1024345,38.5024218 13.1577119,35.2209464 C10.1761803,31.8976876 8.80006965,27.6099328 9.28480481,23.1473351 C10.0558048,16.0372228 15.7753813,10.2818322 22.88425,9.46233377 C23.4893606,9.39269506 24.1019325,9.35712958 24.7048048,9.35712958 C28.1469467,9.35712958 31.4137484,10.4730899 34.1520419,12.5836402 C34.3246464,12.7164512 34.4286071,12.9189009 34.4365658,13.1382628 C34.4452706,13.3586196 34.3557351,13.569028 34.1923329,13.7157667 L32.5461235,15.1913612 C32.3700371,15.3492918 32.1437113,15.4360915 31.9076858,15.4360915 C31.7094642,15.4360915 31.5174603,15.3756551 31.3530632,15.261746 C29.3817903,13.8918531 27.0829667,13.1678593 24.7048048,13.1678593 C21.3656287,13.1733309 18.1898548,14.602168 15.9721106,17.0875238 C13.7260135,19.6049631 12.6978477,22.8486347 13.0776274,26.2216354 C13.6797535,31.5768522 18.0070532,35.8994264 23.366498,36.4995628 C23.8114396,36.549056 24.2616042,36.5746731 24.7048048,36.5746731 C27.8350648,36.5746731 30.7827719,35.3393322 33.0044955,33.096717 C33.1885406,32.9106822 33.4322761,32.8077164 33.6911829,32.8077164 C33.8774664,32.8077164 34.0585271,32.8624325 34.2147167,32.9651496 L36.041738,34.1649251 C36.2215551,34.2830622 36.3406871,34.4740712 36.3677964,34.6889564 C36.3949058,34.902598 36.3280029,35.1162396 36.1837513,35.2744189 M24.8709429,-7.46129033e-05 C11.1352048,-7.46129033e-05 -2.48709678e-05,11.1351551 -2.48709678e-05,24.8708931 C-2.48709678e-05,38.6068799 11.1352048,49.7418609 24.8709429,49.7418609 C38.6069296,49.7418609 49.7419106,38.6068799 49.7419106,24.8708931 C49.7419106,11.1351551 38.6069296,-7.46129033e-05 24.8709429,-7.46129033e-05" id="Fill-3"></path>
                            </g>
                        </g>
                        <g filter="url(#filter-2)" id="Group-11">
                            <g transform="translate(61.475410, 12.295082)">
                                <path d="M11.9863644,5.53168327 C8.11859222,5.53168327 4.82645753,8.34460241 4.82645753,12.6596097 C4.82645753,16.9746171 8.11859222,19.7555712 11.9863644,19.7555712 C15.3743942,19.7555712 17.4521231,17.9657981 17.9955291,17.294267 L17.9955291,22.1207141 C17.2283676,22.7922453 15.0227786,24.3265648 11.3790282,24.3265648 C5.05021294,24.3265648 0,19.3080613 0,12.6596097 C0,6.01115812 5.05021294,0.992921013 11.3790282,0.992921013 C15.0227786,0.992921013 17.2283676,2.52724055 17.9955291,3.19823897 L17.9955291,8.02495251 C17.4521231,7.35368771 15.3743942,5.53168327 11.9863644,5.53168327" id="Fill-1" fill="#231F20"></path>
                                <path d="M26.2374324,14.0576186 L32.8879014,14.0576186 C32.7900964,12.8378503 31.5512329,11.7469854 29.562531,11.7469854 C27.6067025,11.7469854 26.3352374,12.8060256 26.2374324,14.0576186 L26.2374324,14.0576186 Z M37.8104819,17.3628404 L26.2374324,17.3628404 C26.3352374,18.6465255 27.3458892,20.0262196 29.8885477,20.0262196 C31.4860296,20.0262196 32.627088,19.256276 33.2465198,18.3576964 L37.5170668,18.8069862 C37.1258468,20.9892509 34.5505866,24.3265648 29.8559461,24.3265648 C24.6725522,24.3265648 21.3145802,20.4115926 21.3145802,15.7903261 C21.3145802,11.2976956 24.5095439,7.4469076 29.562531,7.4469076 C34.6809932,7.4469076 37.8104819,11.393972 37.8104819,16.1115148 L37.8104819,17.3628404 Z" id="Fill-3" fill="#231F20"></path>
                                <polygon id="Fill-5" fill="#231F20" points="40.6296572 23.8301043 45.6284153 23.8301043 45.6284153 0 40.6296572 0"></polygon>
                                <path d="M54.6646995,16.7191635 C54.6959428,18.7966215 56.070649,19.7555712 57.7265451,19.7555712 C59.3821808,19.7555712 60.1945072,18.9244815 60.1945072,17.9657981 C60.1945072,16.5913035 58.819801,15.9517374 56.4143255,14.5135792 C51.5091239,11.5411014 50.4158679,9.75106199 50.4158679,6.97010783 C50.4158679,3.42226028 53.3524799,0.992921013 57.1641653,0.992921013 C61.4754835,0.992921013 64.2248959,4.28504864 64.2558788,8.47246238 L59.5383975,8.47246238 C59.5071541,6.55456296 58.5386111,5.53168327 57.1641653,5.53168327 C56.0394057,5.53168327 55.1333493,6.17098307 55.1333493,7.19386276 C55.1333493,8.44049739 56.0081623,8.98390222 58.1636913,10.2305368 C62.6002431,12.7874697 64.9434923,14.7373341 64.9434923,18.1573217 C64.9434923,22.1526791 61.5692134,24.3265648 57.7265451,24.3265648 C52.5713968,24.3265648 49.9784614,20.426836 49.9472181,16.7191635 L54.6646995,16.7191635 Z" id="Fill-7" fill="#231F20"></path>
                                <polygon id="Fill-8" fill="#231F20" points="95.7557129 7.4469076 89.7674061 23.8301043 84.629663 23.8301043 81.2593145 14.6671382 77.9216904 23.8301043 72.7512228 23.8301043 66.762916 7.4469076 72.0312843 7.4469076 75.3364566 17.6459994 78.6413562 7.4469076 83.9099972 7.4469076 87.1821723 17.6459994 90.4873446 7.4469076"></polygon>
                                <path d="M105.333415,19.7376579 C107.66683,19.7376579 109.168899,17.9723234 109.168899,15.8868699 C109.168899,13.8008816 107.66683,12.0037224 105.333415,12.0037224 C102.968036,12.0037224 101.402037,13.8008816 101.402037,15.8868699 C101.402037,17.9723234 102.968036,19.7376579 105.333415,19.7376579 M104.502336,7.4469076 C107.059236,7.4469076 108.977378,8.7303253 109.744528,10.2707475 L110.031943,7.76756145 L114.570914,7.76756145 L114.570914,24.0056435 L110.031943,24.0056435 L109.744528,21.502725 C108.977378,23.0428797 107.059236,24.3265648 104.502336,24.3265648 C99.8677373,24.3265648 96.575385,20.5396937 96.575385,15.8868699 C96.575385,11.2335113 99.8677373,7.4469076 104.502336,7.4469076" id="Fill-9" fill="#231F20"></path>
                                <path d="M127.635283,19.6814124 C130.000698,19.6814124 131.566719,17.9241565 131.566719,15.8482466 C131.566719,13.7718043 130.000698,11.9828693 127.635283,11.9828693 C125.3021,11.9828693 123.799743,13.7718043 123.799743,15.8482466 C123.799743,17.9241565 125.3021,19.6814124 127.635283,19.6814124 L127.635283,19.6814124 Z M118.397914,7.76609406 L122.936686,7.76609406 L123.224371,10.2578249 C123.991533,8.72445207 125.909436,7.4469076 128.49834,7.4469076 C133.133007,7.4469076 136.393443,11.2161829 136.393443,15.8482466 C136.393443,20.4797779 133.133007,24.2493194 128.49834,24.2493194 C125.909436,24.2493194 123.991533,22.9715087 123.224371,21.4384021 L123.224371,31.2770119 L118.397914,31.2770119 L118.397914,7.76609406 Z" id="Fill-10" fill="#231F20"></path>
                            </g>
                        </g>
                    </g>
                </g>
            </g>
        </g>
    </g>
</svg>