<?xml version="1.0" encoding="UTF-8"?>
<svg width="20px" height="20px" viewBox="0 0 20 20" version="1.1" xmlns="http://www.w3.org/2000/svg" xmlns:xlink="http://www.w3.org/1999/xlink">
    <title>icn-graph</title>
    <defs>
        <filter id="filter-1">
            <feColorMatrix in="SourceGraphic" type="matrix" values="0 0 0 0 0.058824 0 0 0 0 0.117647 0 0 0 0 0.423529 0 0 0 1.000000 0"></feColorMatrix>
        </filter>
        <polygon id="path-2" points="4.08163265e-05 0.231959184 19.7457143 0.231959184 19.7457143 1.63265306 4.08163265e-05 1.63265306"></polygon>
        <polygon id="path-4" points="0.306748071 0.249795918 14.01013 0.249795918 14.01013 10.302449 0.306748071 10.302449"></polygon>
    </defs>
    <g id="CelSwap-Landing" stroke="none" stroke-width="1" fill="none" fill-rule="evenodd">
        <g id="Home" transform="translate(-783.000000, -759.000000)">
            <g id="Hero" transform="translate(-0.500000, -0.500000)">
                <g id="CEL-price" transform="translate(630.500000, 703.500000)">
                    <g id="icn-graph" transform="translate(146.000000, 49.000000)" filter="url(#filter-1)">
                        <g transform="translate(7.000000, 7.000000)">
                            <g id="Group-3" transform="translate(0.000000, 18.117551)">
                                <mask id="mask-3" fill="white">
                                    <use xlink:href="#path-2"></use>
                                </mask>
                                <g id="Clip-2"></g>
                                <path d="M19.0457551,0.231959184 L0.70044898,0.231959184 C0.313102041,0.231959184 4.08163265e-05,0.545836735 4.08163265e-05,0.932367347 C4.08163265e-05,1.31889796 0.313102041,1.63277551 0.70044898,1.63277551 L19.0457551,1.63277551 C19.4322857,1.63277551 19.7457551,1.31889796 19.7457551,0.932367347 C19.7457551,0.545836735 19.4322857,0.231959184 19.0457551,0.231959184" id="Fill-1" fill="#231F20" mask="url(#mask-3)"></path>
                            </g>
                            <path d="M3.11502041,17.2417959 L5.88277551,17.2417959 C6.11502041,17.2417959 6.30359184,17.0536327 6.30359184,16.8213878 L6.30359184,11.6577143 C6.30359184,11.4254694 6.11502041,11.2373061 5.88277551,11.2373061 L3.11502041,11.2373061 C2.88277551,11.2373061 2.69461224,11.4254694 2.69461224,11.6577143 L2.69461224,16.8213878 C2.69461224,17.0536327 2.88277551,17.2417959 3.11502041,17.2417959" id="Fill-4" fill="#231F20"></path>
                            <path d="M8.43828571,13.5922449 C8.20644898,13.5922449 8.01828571,13.7804082 8.01828571,14.0126531 L8.01828571,16.8212245 C8.01828571,17.0534694 8.20644898,17.2416327 8.43828571,17.2416327 L11.2060408,17.2416327 C11.4382857,17.2416327 11.6268571,17.0534694 11.6268571,16.8212245 L11.6268571,14.0126531 C11.6268571,13.7804082 11.4382857,13.5922449 11.2060408,13.5922449 L8.43828571,13.5922449 Z" id="Fill-6" fill="#231F20"></path>
                            <path d="M13.7619592,8.33955102 C13.5301224,8.33955102 13.341551,8.52771429 13.341551,8.75995918 L13.341551,16.8211837 C13.341551,17.0538367 13.5301224,17.242 13.7619592,17.242 L16.5297143,17.242 C16.7619592,17.242 16.9501224,17.0538367 16.9501224,16.8211837 L16.9501224,8.75995918 C16.9501224,8.52771429 16.7619592,8.33955102 16.5297143,8.33955102 L13.7619592,8.33955102 Z" id="Fill-8" fill="#231F20"></path>
                            <g id="Group-12" transform="translate(3.673469, 0.158367)">
                                <mask id="mask-5" fill="white">
                                    <use xlink:href="#path-4"></use>
                                </mask>
                                <g id="Clip-11"></g>
                                <path d="M0.514979592,6.30857143 L5.2982449,10.1779592 C5.40191837,10.2620408 5.526,10.302449 5.65008163,10.302449 C5.80722449,10.302449 5.96314286,10.2371429 6.0737551,10.1097959 L12.1851837,3.07918367 L13.1272245,3.86612245 C13.2043673,3.92979592 13.2994694,3.96326531 13.3966122,3.96326531 C13.4521224,3.96326531 13.5088571,3.9522449 13.5619184,3.92938776 C13.7068163,3.86734694 13.8055918,3.72897959 13.8157959,3.57102041 L14.0092653,0.697959184 C14.0178367,0.564081633 13.9623265,0.433469388 13.8586531,0.347346939 C13.7557959,0.26122449 13.6178367,0.229387755 13.4868163,0.26244898 L10.6949796,0.966530612 C10.5419184,1.00571429 10.423551,1.12693878 10.3880408,1.28081633 C10.3533469,1.4355102 10.4072245,1.5955102 10.528449,1.69673469 L11.3243673,2.36122449 L5.58273469,8.96653061 L1.21987755,5.43714286 C0.979469388,5.24285714 0.626,5.27959184 0.431714286,5.52 C0.236612245,5.76081633 0.274163265,6.11387755 0.514979592,6.30857143" id="Fill-10" fill="#231F20" mask="url(#mask-5)"></path>
                            </g>
                        </g>
                    </g>
                </g>
            </g>
        </g>
    </g>
</svg>