<?xml version="1.0" encoding="UTF-8"?>
<svg width="83px" height="107px" viewBox="0 0 83 107" version="1.1" xmlns="http://www.w3.org/2000/svg" xmlns:xlink="http://www.w3.org/1999/xlink">
    <title>icn-fire-hover@1,5x</title>
    <defs>
        <linearGradient x1="18.9253512%" y1="116.1624%" x2="77.3744359%" y2="-7.52459918%" id="linearGradient-1">
            <stop stop-color="#F76C1D" offset="0%"></stop>
            <stop stop-color="#F7C664" offset="100%"></stop>
        </linearGradient>
    </defs>
    <g id="CelSwap-Landing" stroke="none" stroke-width="1" fill="none" fill-rule="evenodd">
        <g id="Hell-Yeah-button---hover" transform="translate(-208.000000, -502.000000)" fill="url(#linearGradient-1)">
            <g id="Group-10-Copy" transform="translate(118.000000, 384.000000)">
                <path d="M130.756844,118 C160.592283,163.2683 110.14664,183.818428 123.167862,143.420111 C123.167862,143.420111 111.151724,152.106418 113.680886,165.45378 C119.504989,196.179769 99.793677,186.387194 99.5588583,174.774387 C81.38359,209.605291 91.6139089,229.929956 109.510984,238 C105.415865,230.983616 105.094298,221.861416 112.237574,212.585901 C112.237574,212.585901 112.237574,220.349316 117.387133,220.116338 C125.713476,219.736059 106.423941,196.349617 133.187293,184.591012 C125.550449,194.9758 131.091872,197.540057 138.103529,204.584999 C143.36975,209.880355 141.027546,224.933714 145.122665,224.933714 C149.220775,224.933714 146.060444,212.465655 146.060444,212.465655 C146.060444,212.465655 157.765484,216.232376 151.678145,235.050954 C151.343117,236.080565 150.972193,237.051556 150.569861,237.972945 C171.283265,229.385841 183.902154,207.58515 160.046367,175.611604 C160.046367,175.611604 162.784921,195.312491 152.877665,191.711108 C133.677869,184.733804 178.037669,150.459041 130.756844,118 Z" id="icn-fire-hover"></path>
            </g>
        </g>
    </g>
</svg>