<?xml version="1.0" encoding="UTF-8"?>
<svg width="31px" height="30px" viewBox="0 0 31 30" version="1.1" xmlns="http://www.w3.org/2000/svg" xmlns:xlink="http://www.w3.org/1999/xlink">
    <title>icn-github@1,5x</title>
    <defs>
        <filter id="filter-1">
            <feColorMatrix in="SourceGraphic" type="matrix" values="0 0 0 0 1.000000 0 0 0 0 1.000000 0 0 0 0 1.000000 0 0 0 1.000000 0"></feColorMatrix>
        </filter>
        <polygon id="path-2" points="2.05610953e-06 0 30.7486461 0 30.7486461 29.9862841 2.05610953e-06 29.9862841"></polygon>
    </defs>
    <g id="CelSwap-Landing" stroke="none" stroke-width="1" fill="none" fill-rule="evenodd">
        <g id="Home" transform="translate(-535.000000, -8161.000000)">
            <g id="Developers" transform="translate(0.000000, 7511.000000)">
                <g id="Copy" transform="translate(240.000000, 174.000000)">
                    <g id="icn-github" transform="translate(268.000000, 455.000000)" filter="url(#filter-1)">
                        <g transform="translate(27.000000, 21.000000)">
                            <mask id="mask-3" fill="white">
                                <use xlink:href="#path-2"></use>
                            </mask>
                            <g id="Clip-2"></g>
                            <path d="M12.5005684,22.2013531 C12.4811908,22.2319959 12.4653643,22.2680878 12.440048,22.2954551 C12.0112622,22.7595061 11.7647418,23.3147816 11.6583949,23.9287408 C11.618048,24.1617612 11.5144867,24.2758224 11.2948439,24.3515265 C10.6078745,24.5882816 9.91328265,24.7159959 9.19101735,24.5628735 C8.4483949,24.4054347 7.86893571,23.9922918 7.41844592,23.3914041 C7.29633367,23.2285469 7.19197653,23.0524041 7.07941531,22.8823837 C6.60780306,22.1699755 6.0033949,21.6324245 5.15121122,21.4239245 C4.87958878,21.3574653 4.60410918,21.3446388 4.33374184,21.4219347 C4.04620102,21.504098 3.99517041,21.6676898 4.19568061,21.8917408 C4.31678265,22.0270776 4.45692551,22.1557714 4.61182347,22.2485878 C5.26530306,22.640302 5.70872143,23.2148327 6.06232347,23.8707306 C6.15412959,24.0410265 6.24168061,24.2154551 6.3111398,24.3957 C6.7368949,25.5000673 7.57196633,26.1210061 8.68677245,26.4027306 C9.48195612,26.6036694 10.2851908,26.5663837 11.0874153,26.4369245 C11.2270684,26.4143939 11.3664153,26.3898429 11.5279561,26.3625061 C11.53515,26.4711184 11.5452827,26.5606286 11.5463541,26.6502306 C11.5556296,27.4256694 11.5644459,28.2011082 11.5710582,28.9765776 C11.5784357,29.8454755 11.1097622,30.1796388 10.2811194,29.8770061 C6.24256837,28.4021694 3.28303776,25.727302 1.4336602,21.8469245 C0.303945918,19.4764959 -0.137911224,16.9604755 0.0370071429,14.3468939 C0.495547959,7.49627143 5.43027245,1.76556735 12.1365276,0.346965306 C20.7913745,-1.48386122 28.7019765,4.14615918 30.4093133,12.1588531 C32.0169765,19.7037306 27.7796296,27.2966082 20.5059459,29.8624347 C20.2998643,29.9351388 20.0688031,29.9732816 19.8508439,29.9679857 C19.4809867,29.9590163 19.2307929,29.6973735 19.1880582,29.3286796 C19.1763643,29.2278122 19.18065,29.1248633 19.1809561,29.0228939 C19.1850582,27.6861796 19.1887929,26.3494653 19.1949153,25.0127816 C19.1970888,24.5408939 19.1493949,24.0762918 19.0198745,23.6211184 C18.8781704,23.1232408 18.6577316,22.6690163 18.2958031,22.2911082 C18.2688949,22.2630367 18.2499153,22.2273735 18.2023439,22.1598735 C18.43515,22.1241184 18.6408031,22.0921286 18.8466398,22.0610571 C19.5336398,21.9574347 20.2086092,21.8054449 20.8668337,21.5789755 C23.0829153,20.8165163 24.4262418,19.277302 24.9267214,17.0000265 C25.1511092,15.9789245 25.23615,14.9435878 25.1365071,13.8979653 C25.0208235,12.6835776 24.5718031,11.6068837 23.7850378,10.6771286 C23.6411908,10.5071694 23.6242316,10.3734245 23.68815,10.1616796 C24.0559255,8.94300612 23.9296194,7.74285306 23.5116398,6.55812857 C23.4574255,6.40442449 23.3579663,6.33882245 23.2149153,6.35388367 C22.8715071,6.39009796 22.5218847,6.41054694 22.1888235,6.49365918 C21.3190071,6.71079184 20.5218643,7.1101898 19.7864051,7.61042449 C19.401548,7.87222041 19.0630378,7.92600612 18.60465,7.81806735 C16.3309561,7.2824449 14.053099,7.31973061 11.787701,7.89502653 C11.6036602,7.94177143 11.46315,7.92080204 11.303752,7.81479184 C10.6229663,7.36191429 9.91744592,6.94711837 9.14130306,6.68112857 C8.72929286,6.53991429 8.29612959,6.45836327 7.86979286,6.36214898 C7.75300714,6.33579184 7.62618061,6.35079184 7.50403776,6.35192449 C7.36612959,6.3532102 7.28754796,6.41966939 7.2389051,6.55632245 C6.81376224,7.75099592 6.69305816,8.9609449 7.07243571,10.1880673 C7.13708878,10.3972102 7.09227245,10.5228429 6.96357857,10.6767612 C6.08151735,11.7318735 5.62398673,12.9514959 5.58492551,14.3258633 C5.55547653,15.3612306 5.64238469,16.3853633 5.91755816,17.3875163 C6.48746633,19.463149 7.80315,20.8438224 9.82276224,21.5660265 C10.5947418,21.8420878 11.3924051,22.0062612 12.2023439,22.1181184 C12.2829459,22.1292306 12.363548,22.1407102 12.4434153,22.1559857 C12.4605276,22.1592612 12.4743643,22.179802 12.5005684,22.2013531" id="Fill-1" fill="#231F20" mask="url(#mask-3)"></path>
                        </g>
                    </g>
                </g>
            </g>
        </g>
    </g>
</svg>