<?xml version="1.0" encoding="UTF-8"?>
<svg width="13px" height="27px" viewBox="0 0 13 27" version="1.1" xmlns="http://www.w3.org/2000/svg" xmlns:xlink="http://www.w3.org/1999/xlink">
    <title>icn-fb</title>
    <g id="CelSwap-Landing" stroke="none" stroke-width="1" fill="none" fill-rule="evenodd">
        <g id="Home" transform="translate(-995.000000, -10400.000000)" fill="#0F1E6C">
            <g id="Footer" transform="translate(-2.000000, 10357.500000)">
                <path d="M1004.92967,68.987701 C1004.85212,68.9915214 1004.7935,68.9969536 1004.73482,68.9969536 C1003.06871,68.9973714 1001.40266,68.9957597 999.736546,69 C999.600922,69.0003561 999.570776,68.9536159 999.570896,68.8273039 C999.574239,65.7934276 999.574119,62.7596109 999.574298,59.7257346 C999.574358,58.5469617 999.573701,57.3682484 999.572925,56.1895352 C999.572806,55.9942769 999.560927,55.9834126 999.356774,55.9832932 C998.630659,55.982935 997.904425,55.98001 997.178369,55.9858003 C997.042208,55.9869345 997,55.9473576 997.000482,55.8092859 C997.004899,54.4117352 997.005019,53.0141249 997,51.6165743 C996.999467,51.4739659 997.049073,51.4395823 997.181473,51.440418 C997.907588,51.4451338 998.633763,51.4430445 999.359878,51.4423282 C999.557703,51.4421491 999.57203,51.42639 999.573104,51.2304153 C999.578954,50.1064413 999.530782,48.979005 999.603966,47.8594482 C999.700909,46.3773713 1000.23111,45.0644664 1001.42445,44.0957559 C1002.0221,43.6106246 1002.71341,43.3231394 1003.46299,43.1631004 C1004.12374,43.0219843 1004.79201,42.9946445 1005.4644,43.000793 C1006.57345,43.0110006 1007.6825,43.0153583 1008.79155,43.0234169 C1008.98836,43.0248496 1008.98878,43.0275955 1008.98872,43.21969 C1008.9886,44.5625612 1008.98825,45.9054323 1008.98795,47.2482437 C1008.98789,47.3024457 1008.98795,47.3565879 1008.98795,47.4378311 L1008.8066,47.4378311 C1007.90636,47.4378908 1007.00617,47.4377714 1006.10593,47.4381893 C1005.66784,47.4383684 1005.29505,47.5812753 1005.09275,47.9904761 C1005.00112,48.1758252 1004.94166,48.3965131 1004.93778,48.6024566 C1004.92095,49.4924311 1004.93265,50.3829428 1004.9271,51.273156 C1004.9262,51.4192267 1004.98882,51.4463277 1005.11639,51.4460292 C1006.35479,51.4429251 1007.5932,51.444119 1008.83161,51.4442981 C1009.05522,51.4443578 1009.04686,51.4437608 1009.02132,51.6667171 C1008.96819,52.1306571 1008.92557,52.5958507 1008.87733,53.0603279 C1008.80391,53.7668634 1008.72935,54.4732795 1008.65545,55.1797553 C1008.63271,55.3971004 1008.6031,55.6140872 1008.59134,55.8320292 C1008.58454,55.9574458 1008.53332,55.9857406 1008.41638,55.9853825 C1007.32721,55.9818606 1006.23797,55.9836514 1005.14874,55.9841289 C1004.93014,55.9841886 1004.92973,55.9845468 1004.92973,56.2086372 C1004.92967,60.3963941 1004.92967,64.5840914 1004.92967,68.7718484 L1004.92967,68.987701 Z" id="icn-fb"></path>
            </g>
        </g>
    </g>
</svg>