<?xml version="1.0" encoding="UTF-8"?>
<svg width="27px" height="23px" viewBox="0 0 27 23" version="1.1" xmlns="http://www.w3.org/2000/svg" xmlns:xlink="http://www.w3.org/1999/xlink">
    <title>icn-twitter</title>
    <g id="CelSwap-Landing" stroke="none" stroke-width="1" fill="none" fill-rule="evenodd">
        <g id="Home" transform="translate(-947.000000, -10402.000000)" fill="#0F1E6C">
            <g id="Footer" transform="translate(-2.000000, 10357.500000)">
                <path d="M976.071184,47.6042746 C975.075051,48.0459781 974.00479,48.3445537 972.881338,48.478799 C974.027948,47.7914461 974.908606,46.7030491 975.323344,45.406067 C974.250069,46.0426087 973.061583,46.5047742 971.796431,46.7538075 C970.783378,45.674399 969.339884,45 967.742423,45 C964.67519,45 962.188505,47.4865786 962.188505,50.5537589 C962.188505,50.9890648 962.237625,51.4129501 962.332321,51.8194929 C957.716481,51.5878021 953.624035,49.3767463 950.884775,46.0164893 C950.406694,46.8367657 950.132758,47.7908116 950.132758,48.8086755 C950.132758,50.7355902 951.11324,52.4355727 952.603527,53.4315471 C951.693102,53.4026783 950.836713,53.1528519 950.087974,52.7368448 C950.087445,52.7600033 950.087445,52.7832675 950.087445,52.8066904 C950.087445,55.4976243 952.001935,57.7423075 954.542603,58.2526407 C954.07663,58.3794308 953.585913,58.4475845 953.079387,58.4475845 C952.721487,58.4475845 952.373581,58.4126353 952.034399,58.3477597 C952.741209,60.5541098 954.79227,62.1600835 957.222645,62.2048144 C955.321849,63.6945726 952.927059,64.5823682 950.324899,64.5823682 C949.876586,64.5823682 949.434513,64.556143 949,64.5045916 C951.457868,66.0805861 954.377268,67 957.513712,67 C967.729416,67 973.315851,58.5370462 973.315851,51.1977029 C973.315851,50.9569179 973.310352,50.7174018 973.299724,50.4791547 C974.385002,49.6961539 975.326622,48.7179978 976.071184,47.6042746" id="icn-twitter"></path>
            </g>
        </g>
    </g>
</svg>