<?xml version="1.0" encoding="UTF-8"?>
<svg width="26px" height="31px" viewBox="0 0 26 31" version="1.1" xmlns="http://www.w3.org/2000/svg" xmlns:xlink="http://www.w3.org/1999/xlink">
    <title>icn-apple@1,5x</title>
    <defs>
        <filter id="filter-1">
            <feColorMatrix in="SourceGraphic" type="matrix" values="0 0 0 0 1.000000 0 0 0 0 1.000000 0 0 0 0 1.000000 0 0 0 1.000000 0"></feColorMatrix>
        </filter>
        <polygon id="path-2" points="0 0.0149984422 25.2244286 0.0149984422 25.2244286 22.8979469 0 22.8979469"></polygon>
    </defs>
    <g id="CelSwap-Landing" stroke="none" stroke-width="1" fill="none" fill-rule="evenodd" opacity="0.30140904">
        <g id="Home" transform="translate(-494.000000, -10126.000000)">
            <g id="Download-the-app" transform="translate(-53.500000, 9565.000000)">
                <g id="icn-apple" transform="translate(520.500000, 543.000000)" filter="url(#filter-1)">
                    <g transform="translate(27.000000, 18.000000)">
                        <g id="Group-3" transform="translate(0.000000, 7.102041)">
                            <mask id="mask-3" fill="white">
                                <use xlink:href="#path-2"></use>
                            </mask>
                            <g id="Clip-2"></g>
                            <path d="M-6.12244898e-05,10.1632531 L-6.12244898e-05,8.08162041 C0.12177551,7.44427347 0.215693878,6.80006939 0.369979592,6.17080408 C1.4067551,1.94423265 5.79226531,-1.3378898 10.5419388,0.767865306 C12.1716122,1.49043673 13.6460204,1.38513061 15.219,0.705293878 C16.5576122,0.126844898 17.9662653,-0.138502041 19.4523061,0.105661224 C21.4683061,0.437008163 23.1582245,1.27762041 24.3906735,2.99582449 C24.1532449,3.16370204 23.9365102,3.31137551 23.7255306,3.46688571 C20.7617755,5.64978367 20.155898,9.7621102 22.373449,12.6865592 C23.1276122,13.6810898 24.1139388,14.3908041 25.2244286,14.9387633 L25.2244286,15.0612122 C25.1496122,15.1976204 25.0545918,15.3269265 25.002551,15.4716612 C24.3436531,17.3068041 23.3307551,18.9345184 22.1297755,20.4591306 C21.1760204,21.6696612 20.094551,22.6689673 18.4897347,22.8979469 L18.1223878,22.8979469 C17.116102,22.5947633 16.1074898,22.2988041 15.1040204,21.9866816 C13.9498163,21.6275388 12.7888776,21.5528449 11.6252449,21.9092939 C10.6023061,22.2225184 9.58904082,22.5672122 8.57136735,22.8979469 L7.46932653,22.8979469 C6.27679592,22.5039061 5.35830612,21.7275796 4.56361224,20.7892531 C2.89181633,18.8150082 1.57695918,16.6288041 0.864061224,14.1325592 C0.492795918,12.8332531 0.282918367,11.4877837 -6.12244898e-05,10.1632531" id="Fill-1" fill="#231F20" mask="url(#mask-3)"></path>
                        </g>
                        <path d="M18.8570816,0 C19.3621837,3.73983673 15.5287959,7.4455102 12.6502653,7.05795918 C12.5103061,6.03281633 12.7378163,5.05346939 13.1666327,4.12738776 C14.1839388,1.93016327 15.8935714,0.584326531 18.2710408,0.0950204082 C18.3472041,0.0793469388 18.417,0.0324489796 18.4897347,0 L18.8570816,0 Z" id="Fill-4" fill="#231F20"></path>
                    </g>
                </g>
            </g>
        </g>
    </g>
</svg>