<?xml version="1.0" encoding="UTF-8"?>
<svg width="25px" height="30px" viewBox="0 0 25 30" version="1.1" xmlns="http://www.w3.org/2000/svg" xmlns:xlink="http://www.w3.org/1999/xlink">
    <title>icn-documentation@1,5x</title>
    <defs>
        <filter id="filter-1">
            <feColorMatrix in="SourceGraphic" type="matrix" values="0 0 0 0 1.000000 0 0 0 0 1.000000 0 0 0 0 1.000000 0 0 0 1.000000 0"></feColorMatrix>
        </filter>
        <polygon id="path-2" points="0 0.115882353 24.7304545 0.115882353 24.7304545 28.8232059 0 28.8232059"></polygon>
    </defs>
    <g id="CelSwap-Landing" stroke="none" stroke-width="1" fill="none" fill-rule="evenodd">
        <g id="Home" transform="translate(-269.000000, -8160.000000)">
            <g id="Developers" transform="translate(0.000000, 7511.000000)">
                <g id="Copy" transform="translate(240.000000, 174.000000)">
                    <g id="icn-documentation" transform="translate(2.000000, 455.000000)" filter="url(#filter-1)">
                        <g transform="translate(27.000000, 20.000000)">
                            <path d="M16.5685795,19.0727647 L5.08107955,19.0727647 C4.87198864,19.0727647 4.70380682,19.2486471 4.70380682,19.4645294 C4.70380682,19.6804118 4.87198864,19.8551176 5.08107955,19.8551176 L16.5685795,19.8551176 C16.7776705,19.8551176 16.9458523,19.6804118 16.9458523,19.4645294 C16.9458523,19.2486471 16.7776705,19.0727647 16.5685795,19.0727647" id="Fill-1" fill="#231F20"></path>
                            <path d="M16.5685795,15.0539412 L5.08107955,15.0539412 C4.87198864,15.0539412 4.70380682,15.2292353 4.70380682,15.4457059 C4.70380682,15.6615882 4.87198864,15.8362941 5.08107955,15.8362941 L16.5685795,15.8362941 C16.7776705,15.8362941 16.9458523,15.6615882 16.9458523,15.4457059 C16.9458523,15.2292353 16.7776705,15.0539412 16.5685795,15.0539412" id="Fill-3" fill="#231F20"></path>
                            <path d="M16.5685795,11.0362353 L5.08107955,11.0362353 C4.87198864,11.0362353 4.70380682,11.2109412 4.70380682,11.4268235 C4.70380682,11.6427059 4.87198864,11.818 5.08107955,11.818 L16.5685795,11.818 C16.7776705,11.818 16.9458523,11.6427059 16.9458523,11.4268235 C16.9458523,11.2109412 16.7776705,11.0362353 16.5685795,11.0362353" id="Fill-5" fill="#231F20"></path>
                            <g id="Group-9" transform="translate(0.000000, 0.472471)">
                                <mask id="mask-3" fill="white">
                                    <use xlink:href="#path-2"></use>
                                </mask>
                                <g id="Clip-8"></g>
                                <path d="M21.14125,5.39658824 L6.73159091,5.39658824 C6.98840909,4.89717647 7.13386364,4.33188235 7.13386364,3.73364706 C7.13386364,3.13482353 6.98840909,2.56952941 6.73159091,2.07129412 L21.14125,2.07129412 C22.07875,2.07129412 22.84125,2.81658824 22.84125,3.73364706 C22.84125,4.65011765 22.07875,5.39658824 21.14125,5.39658824 L21.14125,5.39658824 Z M18.4043182,26.4871765 L15.3810227,23.4695294 C15.0156818,23.1036471 14.4361364,23.1036471 14.0702273,23.4695294 L11.0475,26.4871765 L8.02534091,23.4695294 C7.65886364,23.1036471 7.07931818,23.1036471 6.71340909,23.4695294 L3.79977273,26.3771765 L1.88897727,24.4701176 L1.88897727,3.73364706 C1.88897727,2.81658824 2.60943182,2.07129412 3.49465909,2.07129412 C3.50318182,2.07129412 3.51,2.06894118 3.51738636,2.06894118 C3.52704545,2.06894118 3.535,2.07129412 3.54352273,2.07129412 L3.54693182,2.07129412 C4.48386364,2.07364706 5.24409091,2.81835294 5.24409091,3.73364706 C5.24409091,4.65011765 4.48159091,5.39658824 3.54352273,5.39658824 C3.02136364,5.39658824 2.59920455,5.83364706 2.59920455,6.37364706 C2.59920455,6.91423529 3.02136364,7.35247059 3.54352273,7.35247059 L20.1963636,7.35247059 L20.1963636,24.6977647 L18.4043182,26.4871765 Z M24.7304545,3.73364706 C24.7304545,1.73894118 23.1202273,0.115411765 21.14125,0.115411765 L3.54352273,0.115411765 C3.53556818,0.115411765 3.52818182,0.116588235 3.51909091,0.117176471 C3.51113636,0.116588235 3.50318182,0.115411765 3.49465909,0.115411765 C1.56795455,0.115411765 -0.000227272727,1.73894118 -0.000227272727,3.73364706 L-0.000227272727,24.8848235 C-0.000227272727,25.1512941 0.10375,25.4054118 0.288977273,25.5889412 L3.14409091,28.4401176 C3.51056818,28.8048235 4.08954545,28.8048235 4.45602273,28.4401176 L7.36965909,25.5312941 L10.39125,28.5483529 C10.7577273,28.9148235 11.3372727,28.9148235 11.70375,28.5483529 L14.7259091,25.5312941 L17.7486364,28.5483529 C17.9321591,28.7312941 18.1685227,28.8232059 18.4043182,28.8232059 C18.6406818,28.8232059 18.8776136,28.7312941 19.0605682,28.5483529 L21.7963636,25.8177647 C21.9815909,25.6324706 22.0855682,25.3789412 22.0855682,25.1136471 L22.0855682,7.22188235 C23.6077273,6.80129412 24.7304545,5.39835294 24.7304545,3.73364706 L24.7304545,3.73364706 Z" id="Fill-7" fill="#231F20" mask="url(#mask-3)"></path>
                            </g>
                        </g>
                    </g>
                </g>
            </g>
        </g>
    </g>
</svg>