<?xml version="1.0" encoding="UTF-8"?>
<svg width="83px" height="107px" viewBox="0 0 83 107" version="1.1" xmlns="http://www.w3.org/2000/svg" xmlns:xlink="http://www.w3.org/1999/xlink">
    <title>icn-fire@1,5x</title>
    <defs>
        <linearGradient x1="37.5354015%" y1="107.697218%" x2="62.9529879%" y2="6.57221332%" id="linearGradient-1">
            <stop stop-color="#FBF6EF" offset="0%"></stop>
            <stop stop-color="#F4EBDF" offset="100%"></stop>
        </linearGradient>
    </defs>
    <g id="CelSwap-Landing" stroke="none" stroke-width="1" fill="none" fill-rule="evenodd">
        <g id="Home" transform="translate(-679.000000, -9094.000000)" fill="url(#linearGradient-1)">
            <g id="In-app" transform="translate(0.000000, 8377.000000)">
                <g id="Bubbles" transform="translate(-69.000000, 423.000000)">
                    <g id="Group-14" transform="translate(696.000000, 214.000000)">
                        <path d="M92.756844,80 C122.592283,125.2683 72.1466401,145.818428 85.1678618,105.420111 C85.1678618,105.420111 73.1517241,114.106418 75.6808862,127.45378 C81.5049888,158.179769 61.793677,148.387194 61.5588583,136.774387 C43.38359,171.605291 53.6139089,191.929956 71.5109843,200 C67.4158655,192.983616 67.0942984,183.861416 74.2375737,174.585901 C74.2375737,174.585901 74.2375737,182.349316 79.3871334,182.116338 C87.7134762,181.736059 68.4239407,158.349617 95.1872925,146.591012 C87.5504492,156.9758 93.0918719,159.540057 100.103529,166.584999 C105.36975,171.880355 103.027546,186.933714 107.122665,186.933714 C111.220775,186.933714 108.060444,174.465655 108.060444,174.465655 C108.060444,174.465655 119.765484,178.232376 113.678145,197.050954 C113.343117,198.080565 112.972193,199.051556 112.569861,199.972945 C133.283265,191.385841 145.902154,169.58515 122.046367,137.611604 C122.046367,137.611604 124.784921,157.312491 114.877665,153.711108 C95.6778692,146.733804 140.037669,112.459041 92.756844,80 Z" id="icn-fire"></path>
                    </g>
                </g>
            </g>
        </g>
    </g>
</svg>