<?xml version="1.0" encoding="UTF-8"?>
<svg width="217px" height="202px" viewBox="0 0 217 202" version="1.1" xmlns="http://www.w3.org/2000/svg" xmlns:xlink="http://www.w3.org/1999/xlink">
    <title>logo-metamask-fox</title>
    <g id="CelSwap-Landing" stroke="none" stroke-width="1" fill="none" fill-rule="evenodd" stroke-linecap="round" stroke-linejoin="round">
        <g id="Home" transform="translate(-252.000000, -1274.000000)" fill-rule="nonzero">
            <g id="Wallets" transform="translate(0.000000, 956.000000)">
                <g id="logo-metamask-fox" transform="translate(252.000000, 319.000000)">
                    <polygon id="Path" stroke="#E2761B" fill="#E2761B" points="205.147679 0.421940928 121.181435 62.7848101 136.708861 25.9915612"></polygon>
                    <g id="Group" transform="translate(1.687764, 0.000000)" fill="#E4761B" stroke="#E4761B">
                        <polygon id="Path" points="9.62025316 0.421940928 92.9113924 63.3755274 78.1434599 25.9915612"></polygon>
                        <polygon id="Path" points="173.248945 144.978903 150.886076 179.240506 198.734177 192.405063 212.489451 145.738397"></polygon>
                        <polygon id="Path" points="0.759493671 145.738397 14.4303797 192.405063 62.278481 179.240506 39.9156118 144.978903"></polygon>
                        <polygon id="Path" points="59.5780591 87.0886076 46.2447257 107.257384 93.7552743 109.367089 92.0675105 58.3122363"></polygon>
                        <polygon id="Path" points="153.50211 87.0886076 120.590717 57.721519 119.493671 109.367089 166.919831 107.257384"></polygon>
                        <polygon id="Path" points="62.278481 179.240506 90.8016878 165.316456 66.1603376 146.075949"></polygon>
                        <polygon id="Path" points="122.278481 165.316456 150.886076 179.240506 146.919831 146.075949"></polygon>
                    </g>
                    <g id="Group" transform="translate(63.291139, 164.556962)" fill="#D7C1B3" stroke="#D7C1B3">
                        <polygon id="Path" points="89.2827004 14.6835443 60.6751055 0.759493671 62.9535865 19.4092827 62.7004219 27.257384"></polygon>
                        <polygon id="Path" points="0.675105485 14.6835443 27.257384 27.257384 27.0886076 19.4092827 29.1983122 0.759493671"></polygon>
                    </g>
                    <polygon id="Path" stroke="#233447" fill="#233447" points="90.9704641 133.755274 67.1729958 126.751055 83.9662447 119.07173"></polygon>
                    <polygon id="Path" stroke="#233447" fill="#233447" points="125.485232 133.755274 132.489451 119.07173 149.367089 126.751055"></polygon>
                    <g id="Group" transform="translate(41.350211, 107.172996)" fill="#CD6116" stroke="#CD6116">
                        <polygon id="Path" points="22.6160338 72.0675105 26.6666667 37.8059072 0.253164557 38.5654008"></polygon>
                        <polygon id="Path" points="107.172996 37.8059072 111.223629 72.0675105 133.586498 38.5654008"></polygon>
                        <polygon id="Path" points="127.257384 0.0843881857 79.8312236 2.19409283 84.2194093 26.5822785 91.2236287 11.8987342 108.101266 19.5780591"></polygon>
                        <polygon id="Path" points="25.8227848 19.5780591 42.7004219 11.8987342 49.6202532 26.5822785 54.092827 2.19409283 6.58227848 0.0843881857"></polygon>
                    </g>
                    <g id="Group" transform="translate(47.257384, 107.172996)" fill="#E4751F" stroke="#E4751F">
                        <polygon id="Path" points="0.675105485 0.0843881857 20.5907173 38.9029536 19.9156118 19.5780591"></polygon>
                        <polygon id="Path" points="102.194093 19.5780591 101.350211 38.9029536 121.350211 0.0843881857"></polygon>
                        <polygon id="Path" points="48.185654 2.19409283 43.7130802 26.5822785 49.2827004 55.3586498 50.5485232 17.4683544"></polygon>
                        <polygon id="Path" points="73.9240506 2.19409283 71.6455696 17.3839662 72.6582278 55.3586498 78.3122363 26.5822785"></polygon>
                    </g>
                    <polygon id="Path" stroke="#F6851B" fill="#F6851B" points="125.56962 133.755274 119.915612 162.531646 123.966245 165.316456 148.607595 146.075949 149.451477 126.751055"></polygon>
                    <polygon id="Path" stroke="#F6851B" fill="#F6851B" points="67.1729958 126.751055 67.8481013 146.075949 92.4894515 165.316456 96.5400844 162.531646 90.9704641 133.755274"></polygon>
                    <polygon id="Path" stroke="#C0AD9E" fill="#C0AD9E" points="125.991561 191.814346 126.244726 183.966245 124.135021 182.109705 92.3206751 182.109705 90.3797468 183.966245 90.5485232 191.814346 63.9662447 179.240506 73.2489451 186.835443 92.0675105 199.915612 124.388186 199.915612 143.291139 186.835443 152.57384 179.240506"></polygon>
                    <polygon id="Path" stroke="#161616" fill="#161616" points="123.966245 165.316456 119.915612 162.531646 96.5400844 162.531646 92.4894515 165.316456 90.3797468 183.966245 92.3206751 182.109705 124.135021 182.109705 126.244726 183.966245"></polygon>
                    <g id="Group" fill="#763D16" stroke="#763D16">
                        <polygon id="Path" points="208.691983 66.835443 215.864979 32.4050633 205.147679 0.421940928 123.966245 60.6751055 155.189873 87.0886076 199.324895 100 209.113924 88.6075949 204.894515 85.5696203 211.64557 79.4092827 206.413502 75.3586498 213.164557 70.2109705"></polygon>
                        <polygon id="Path" points="0.675105485 32.4050633 7.84810127 66.835443 3.29113924 70.2109705 10.0421941 75.3586498 4.89451477 79.4092827 11.6455696 85.5696203 7.42616034 88.6075949 17.1308017 100 61.2658228 87.0886076 92.4894515 60.6751055 11.3080169 0.421940928"></polygon>
                    </g>
                    <polygon id="Path" stroke="#F6851B" fill="#F6851B" points="199.324895 100 155.189873 87.0886076 168.607595 107.257384 148.607595 146.075949 174.936709 145.738397 214.177215 145.738397"></polygon>
                    <polygon id="Path" stroke="#F6851B" fill="#F6851B" points="61.2658228 87.0886076 17.1308017 100 2.44725738 145.738397 41.6033755 145.738397 67.8481013 146.075949 47.9324895 107.257384"></polygon>
                    <polygon id="Path" stroke="#F6851B" fill="#F6851B" points="121.181435 109.367089 123.966245 60.6751055 136.793249 25.9915612 79.8312236 25.9915612 92.4894515 60.6751055 95.443038 109.367089 96.4556962 124.725738 96.5400844 162.531646 119.915612 162.531646 120.084388 124.725738"></polygon>
                </g>
            </g>
        </g>
    </g>
</svg>