<?xml version="1.0" encoding="UTF-8"?>
<svg width="200px" height="200px" viewBox="0 0 200 200" version="1.1" xmlns="http://www.w3.org/2000/svg" xmlns:xlink="http://www.w3.org/1999/xlink">
    <title>logo-cel-standalone</title>
    <defs>
        <filter id="filter-1">
            <feColorMatrix in="SourceGraphic" type="matrix" values="0 0 0 0 1.000000 0 0 0 0 1.000000 0 0 0 0 1.000000 0 0 0 1.000000 0"></feColorMatrix>
        </filter>
        <linearGradient x1="21.0784694%" y1="100%" x2="80.5284637%" y2="0%" id="linearGradient-2">
            <stop stop-color="#FF3CAC" offset="0%"></stop>
            <stop stop-color="#21D4FD" offset="100%"></stop>
        </linearGradient>
    </defs>
    <g id="CelSwap-Landing" stroke="none" stroke-width="1" fill="none" fill-rule="evenodd">
        <g id="Home" transform="translate(-981.000000, -1275.000000)">
            <g id="Wallets" transform="translate(0.000000, 956.000000)">
                <g id="logo-cel-standalone" transform="translate(721.000000, 0.000000)" filter="url(#filter-1)">
                    <g transform="translate(260.000000, 319.000000)">
                        <path d="M159.397019,70.7211774 C156.650269,70.7211774 154.422826,72.9476265 154.422826,75.695371 C154.422826,78.4421207 156.650269,80.6695645 159.397019,80.6695645 C162.144764,80.6695645 164.371213,78.4421207 164.371213,75.695371 C164.371213,72.9476265 162.144764,70.7211774 159.397019,70.7211774" id="Fill-1" fill="#6EA0E1"></path>
                        <g id="Group-5" fill="url(#linearGradient-2)">
                            <path d="M159.397019,90.7112675 C151.104044,90.7112675 144.380924,83.9881475 144.380924,75.695172 C144.380924,67.4002069 151.104044,60.6790765 159.397019,60.6790765 C167.690989,60.6790765 174.414109,67.4002069 174.414109,75.695172 C174.414109,83.9881475 167.690989,90.7112675 159.397019,90.7112675 M144.735005,141.097676 C132.982975,154.060424 116.284608,161.510771 98.9236773,161.539622 L98.8172295,161.539622 C81.2434037,161.536637 64.4097379,154.009687 52.6308476,140.883785 C40.7047212,127.590751 35.2002786,110.439731 37.1392192,92.5893403 C40.2232192,64.1488912 63.101525,41.1273286 91.5369999,37.8493351 C93.9574425,37.5707803 96.4077302,37.4285183 98.8192192,37.4285183 C112.587787,37.4285183 125.654993,41.8923596 136.608168,50.3345609 C137.298586,50.8658048 137.714428,51.6756035 137.746263,52.5530512 C137.781082,53.4344783 137.422941,54.2761119 136.769331,54.8630667 L130.184494,60.7654448 C129.480148,61.3971674 128.574845,61.7443661 127.630743,61.7443661 C126.837857,61.7443661 126.069841,61.5026203 125.412253,61.0469841 C117.527161,55.5674125 108.331867,52.671437 98.8192192,52.671437 C85.4625147,52.6933235 72.7594192,58.4086719 63.8884425,68.3500951 C54.9040541,78.4198525 50.7913908,91.394539 52.3105095,104.886542 C54.7190141,126.307409 72.0282128,143.597705 93.4659921,145.998251 C95.2457586,146.196224 97.0464166,146.298693 98.8192192,146.298693 C111.340259,146.298693 123.131088,141.357329 132.017982,132.386868 C132.754162,131.642729 133.729104,131.230865 134.764731,131.230865 C135.509866,131.230865 136.234108,131.44973 136.858867,131.860598 L144.166952,136.6597 C144.886221,137.132249 145.362748,137.896285 145.471186,138.755825 C145.579623,139.610392 145.312011,140.464958 144.735005,141.097676 M99.4837715,-0.000298451613 C44.5408192,-0.000298451613 -9.94838711e-05,44.5406203 -9.94838711e-05,99.4835725 C-9.94838711e-05,154.42752 44.5408192,198.967443 99.4837715,198.967443 C154.427719,198.967443 198.967642,154.42752 198.967642,99.4835725 C198.967642,44.5406203 154.427719,-0.000298451613 99.4837715,-0.000298451613" id="Fill-3"></path>
                        </g>
                    </g>
                </g>
            </g>
        </g>
    </g>
</svg>